<svg width="400" height="400" viewBox="0 0 400 400" fill="none" xmlns="http://www.w3.org/2000/svg">
<g clip-path="url(#clip0_933_4296)">
<path d="M400 -0.000488281H0V400H400V-0.000488281Z" fill="white"/>
<path d="M246.715 217.723C286.778 386.56 115.223 335.251 241.409 216.136C115.223 335.251 73.8811 161.026 240.13 210.748C73.8811 161.026 204.095 38.1093 244.157 206.947C204.094 38.1097 375.649 89.4184 249.463 208.533C375.649 89.4184 416.99 263.645 250.741 213.922C416.99 263.644 286.778 386.56 246.715 217.723Z" fill="#DDC7F8"/>
<path d="M255.954 216.542C253.697 222.341 247.166 225.212 241.366 222.956C235.567 220.7 232.695 214.169 234.951 208.369C237.209 202.57 243.738 199.697 249.538 201.955C255.338 204.211 258.21 210.741 255.954 216.542Z" fill="#F6F4B7"/>
<path d="M116.025 323.706C160.679 368.185 97.8897 385.142 114.083 324.23C97.8901 385.142 51.8109 339.243 112.658 322.811C51.8109 339.243 68.5213 276.387 113.175 320.867C68.5213 276.387 131.31 259.431 115.117 320.342C131.31 259.431 177.389 305.33 116.542 321.762C177.39 305.33 160.679 368.185 116.025 323.706Z" fill="#F6F4B7"/>
<path d="M118.653 321.574C119.065 323.797 117.597 325.932 115.374 326.344C113.152 326.756 111.016 325.288 110.604 323.066C110.192 320.844 111.66 318.708 113.882 318.296C116.105 317.885 118.241 319.352 118.653 321.574Z" fill="#F6F4B7"/>
<path d="M173.691 284.363C172.289 305.277 154.322 293.235 173.135 283.99C154.322 293.234 155.768 271.652 173.18 283.323C155.768 271.652 175.182 262.113 173.78 283.028C175.182 262.113 193.149 274.156 174.336 283.4C193.15 274.156 191.703 295.739 174.291 284.068C191.703 295.739 172.289 305.278 173.691 284.363Z" fill="#F4EDFD"/>
<path d="M174.799 284.556C174.332 285.145 173.476 285.243 172.887 284.776C172.298 284.308 172.2 283.452 172.667 282.864C173.135 282.275 173.991 282.177 174.58 282.644C175.168 283.112 175.266 283.968 174.799 284.556Z" fill="white"/>
<path d="M315.116 69.7622C295.453 89.3453 288.67 77.9851 315.047 69.6476C288.67 77.9848 287.944 64.7739 315.04 69.5142C287.943 64.7739 293.44 52.7382 315.095 69.3925C293.439 52.7386 303.899 44.6353 315.201 69.3106C303.899 44.6353 316.927 42.3214 315.332 69.2874C316.927 42.3214 329.537 46.3265 315.46 69.3279C329.537 46.3265 338.841 55.7336 315.554 69.4232C338.841 55.7336 342.709 68.3874 315.593 69.5509C342.708 68.3874 340.252 81.3884 315.568 69.6825C340.253 81.3887 332.035 91.759 315.485 69.7873C332.035 91.759 319.941 97.123 315.363 69.8416C319.941 97.123 306.738 96.2519 315.229 69.8328C306.738 96.2516 295.453 89.3453 315.116 69.7622Z" fill="#F6F4B7"/>
<path d="M83.71 143.225C76.4033 179.96 62.3144 174.124 83.1234 142.981C62.3144 174.124 51.5318 163.341 82.6739 142.532C51.5318 163.341 45.6961 149.252 82.4312 141.945C45.6961 149.252 45.6961 134.002 82.4312 141.309C45.6961 134.002 51.5314 119.913 82.6739 140.722C51.5318 119.913 62.3144 109.131 83.1234 140.273C62.3144 109.131 76.4033 103.295 83.71 140.03C76.4033 103.295 91.6528 103.295 84.3454 140.03C91.6528 103.295 105.741 109.131 84.9324 140.273C105.741 109.131 116.524 119.913 85.3822 140.722C116.524 119.913 122.36 134.002 85.6249 141.309C122.36 134.002 122.36 149.252 85.6249 141.945C122.36 149.252 116.524 163.34 85.3822 142.532C116.524 163.341 105.741 174.124 84.9324 142.981C105.741 174.124 91.6528 179.959 84.3454 143.225C91.6528 179.96 76.4029 179.96 83.71 143.225Z" fill="#F6F4B7"/>
<path d="M83.7392 45.8585C83.7392 49.7475 80.5864 52.9002 76.6971 52.9002C72.8077 52.9002 69.6553 49.7475 69.6553 45.8585C69.6553 41.9694 72.808 38.8167 76.6971 38.8167C80.5861 38.8167 83.7392 41.9694 83.7392 45.8585Z" fill="#F6F4B7"/>
<path d="M337.25 139.832C337.25 143.721 334.097 146.874 330.208 146.874C326.319 146.874 323.166 143.721 323.166 139.832C323.166 135.943 326.319 132.791 330.208 132.791C334.097 132.791 337.25 135.943 337.25 139.832Z" fill="#F6F4B7"/>
<path d="M66.2558 382.901C66.2558 386.79 63.103 389.943 59.214 389.943C55.3246 389.943 52.1719 386.79 52.1719 382.901C52.1719 379.012 55.3246 375.859 59.214 375.859C63.103 375.859 66.2558 379.012 66.2558 382.901Z" fill="#F6F4B7"/>
<path d="M220.765 359.469C220.765 362.324 218.45 364.64 215.594 364.64C212.738 364.64 210.422 362.324 210.422 359.469C210.422 356.612 212.738 354.297 215.594 354.297C218.45 354.297 220.765 356.612 220.765 359.469Z" fill="#F6F4B7"/>
<path d="M239.391 91.2668C239.391 95.1554 236.237 98.3086 232.349 98.3086C228.459 98.3086 225.307 95.1554 225.307 91.2668C225.307 87.3774 228.459 84.2246 232.349 84.2246C236.237 84.2246 239.391 87.3774 239.391 91.2668Z" fill="#F6F4B7"/>
<path d="M372.532 277.636C372.532 284.381 367.064 289.849 360.319 289.849C353.573 289.849 348.105 284.381 348.105 277.636C348.105 270.891 353.573 265.422 360.319 265.422C367.064 265.422 372.532 270.891 372.532 277.636Z" fill="#F6F4B7"/>
<path d="M70.4561 353.398C70.4561 360.143 64.9884 365.611 58.243 365.611C51.4975 365.611 46.0298 360.143 46.0298 353.398C46.0298 346.652 51.4975 341.184 58.243 341.184C64.9884 341.184 70.4561 346.652 70.4561 353.398Z" fill="#DDC7F8"/>
<path d="M139.686 166.057C139.686 170.805 135.838 174.653 131.091 174.653C126.343 174.653 122.495 170.805 122.495 166.057C122.495 161.31 126.343 157.462 131.091 157.462C135.838 157.462 139.686 161.31 139.686 166.057Z" fill="#F6F4B7"/>
<path d="M36.1814 168.158C36.1814 171.53 33.4474 174.264 30.0748 174.264C26.7023 174.264 23.9683 171.53 23.9683 168.158C23.9683 164.785 26.7023 162.051 30.0748 162.051C33.4474 162.051 36.1814 164.785 36.1814 168.158Z" fill="#F4EDFD"/>
<path d="M372.15 22.7899C372.15 25.9519 369.587 28.5152 366.425 28.5152C363.264 28.5152 360.7 25.9519 360.7 22.7899C360.7 19.628 363.264 17.0647 366.425 17.0647C369.587 17.0647 372.15 19.628 372.15 22.7899Z" fill="#F4EDFD"/>
<path d="M38.7134 12.5914C38.7134 15.7534 36.1505 18.3167 32.9889 18.3167C29.8273 18.3167 27.2637 15.7534 27.2637 12.5914C27.2637 9.4295 29.827 6.86621 32.9889 6.86621C36.1509 6.86621 38.7134 9.4295 38.7134 12.5914Z" fill="#F4EDFD"/>
<path d="M360.626 244.733C360.626 249.731 356.575 253.783 351.577 253.783C346.578 253.783 342.526 249.731 342.526 244.733C342.526 239.735 346.578 235.682 351.577 235.682C356.575 235.682 360.626 239.735 360.626 244.733Z" fill="#F4EDFD"/>
<path d="M379.656 145.661C379.656 154.732 372.303 162.085 363.232 162.085C354.161 162.085 346.808 154.732 346.808 145.661C346.808 136.589 354.161 129.236 363.232 129.236C372.303 129.236 379.656 136.589 379.656 145.661Z" fill="#F6F4B7"/>
<path d="M200.263 349.635C200.263 355.115 195.821 359.557 190.34 359.557C184.859 359.557 180.417 355.115 180.417 349.635C180.417 344.154 184.859 339.71 190.34 339.71C195.821 339.71 200.263 344.154 200.263 349.635Z" fill="#F4EDFD"/>
<path d="M268.15 75.6212C268.15 79.4341 265.059 82.5251 261.246 82.5251C257.432 82.5251 254.341 79.4341 254.341 75.6212C254.341 71.8081 257.432 68.7163 261.246 68.7163C265.059 68.7163 268.15 71.8081 268.15 75.6212Z" fill="#F4EDFD"/>
<path d="M274.949 49.5012C274.949 52.2413 272.727 54.4627 269.987 54.4627C267.247 54.4627 265.026 52.2413 265.026 49.5012C265.026 46.7609 267.247 44.5391 269.987 44.5391C272.727 44.5391 274.949 46.7609 274.949 49.5012Z" fill="#DDC7F8"/>
<path d="M26.8212 295.727C26.8212 297.953 25.0164 299.758 22.79 299.758C20.5636 299.758 18.7588 297.953 18.7588 295.727C18.7588 293.5 20.5636 291.695 22.79 291.695C25.0164 291.695 26.8212 293.5 26.8212 295.727Z" fill="#DDC7F8"/>
<path d="M71.9867 26.3359C71.9867 28.5619 70.1819 30.367 67.9555 30.367C65.7291 30.367 63.9243 28.5622 63.9243 26.3359C63.9243 24.1091 65.7291 22.304 67.9555 22.304C70.1819 22.3043 71.9867 24.1095 71.9867 26.3359Z" fill="#DDC7F8"/>
<path d="M102.71 200.2C102.71 204.374 99.3263 207.759 95.1519 207.759C90.9775 207.759 87.5933 204.374 87.5933 200.2C87.5933 196.025 90.9775 192.64 95.1519 192.64C99.3263 192.64 102.71 196.025 102.71 200.2Z" fill="#DDC7F8"/>
<path d="M153.797 189.03C153.797 191.378 151.893 193.281 149.545 193.281C147.197 193.281 145.293 191.378 145.293 189.03C145.293 186.681 147.197 184.777 149.545 184.777C151.893 184.777 153.797 186.681 153.797 189.03Z" fill="#F6F4B7"/>
<path d="M180.994 329.237C180.994 331.585 179.09 333.489 176.742 333.489C174.394 333.489 172.49 331.585 172.49 329.237C172.49 326.889 174.394 324.984 176.742 324.984C179.09 324.985 180.994 326.889 180.994 329.237Z" fill="#F6F4B7"/>
<path d="M104.518 245.705C104.518 250.877 100.325 255.071 95.1522 255.071C89.9797 255.071 85.7866 250.877 85.7866 245.705C85.7866 240.532 89.9797 236.338 95.1522 236.338C100.325 236.338 104.518 240.532 104.518 245.705Z" fill="#F6F4B7"/>
<path d="M3.72322 77.0159C58.8656 154.613 100.219 64.2944 5.44618 73.2521C100.219 64.2947 42.6791 -16.6759 3.04871 69.8782C20.3973 31.9884 11.2003 12.4766 0 9.02222V21.87C9.07874 24.4051 16.721 40.0197 2.70475 70.6306C34.4103 1.38669 80.4397 66.1641 4.6221 73.3294C80.4397 66.1641 47.3583 138.419 3.24379 76.3393C29.8006 113.711 11.6992 131.294 0 124.264V137.11C14.63 145.372 36.6691 123.377 3.72322 77.0159Z" fill="#F4EDFD"/>
<path d="M3.24379 76.3394C47.3583 138.42 80.4401 66.1646 4.6221 73.3295C80.4397 66.1642 34.4103 1.38677 2.70475 70.6307C16.721 40.0198 9.07909 24.4052 0 21.8701V124.264C11.6992 131.294 29.8006 113.711 3.24379 76.3394Z" fill="white"/>
<path d="M20.5955 238.808C16.625 310.915 83.8595 276.882 23.3973 237.39C83.8592 276.881 88.0011 201.638 23.5694 234.254C88.0011 201.638 24.9118 160.429 20.9409 232.537C22.8074 198.643 8.94151 188.202 0 190.755V202.761C5.44371 194.818 22.7485 199.719 20.9067 233.164C24.0838 175.478 74.555 208.446 23.0096 234.539C74.555 208.446 71.2421 268.64 22.8716 237.046C71.2421 268.64 17.4547 295.867 20.6304 238.182C19.1153 265.707 6.83119 272.591 0 269.432V278.703C8.46914 277.855 19.0444 266.98 20.5955 238.808Z" fill="#F6F4B7"/>
<path d="M0 215.205V218.325C4.0005 223.261 9.8746 228.557 18.1391 233.955C11.3834 229.542 5.33259 226.565 0 224.707V225.684C5.19007 226.896 11.4219 229.567 18.6658 234.299C8.1908 227.456 2.50896 220.82 0 215.205Z" fill="#F6F4B7"/>
<path d="M18.5268 236.807C11.2744 240.478 5.10787 242.441 0 243.192V244.033C5.25004 242.726 11.2324 240.499 17.967 237.09C10.2577 240.993 4.37797 245.018 0 248.958V250.666C3.568 246.187 9.47138 241.391 18.5268 236.807Z" fill="#F6F4B7"/>
<path d="M20.6308 238.181C17.4547 295.867 71.2421 268.64 22.872 237.046C71.2424 268.64 74.5554 208.446 23.0099 234.538C74.5554 208.446 24.0841 175.477 20.907 233.164C22.7489 199.719 5.44407 194.818 0 202.761V215.205C2.50896 220.82 8.19044 227.456 18.6658 234.299C11.4222 229.567 5.19007 226.896 0 225.683V243.192C5.10787 242.441 11.2741 240.478 18.5268 236.806C9.47138 241.391 3.568 246.187 0 250.666V269.432C6.83119 272.592 19.1153 265.707 20.6308 238.181Z" fill="#DDC7F8"/>
<path d="M3.9582 349.524C58.5862 362.79 43.3772 306.752 2.92139 345.846C3.86895 346.783 4.29546 348.173 3.9582 349.524Z" fill="#F4EDFD"/>
<path d="M1.49437 344.95C2.03518 345.14 2.50402 345.441 2.89101 345.815C31.4724 315.882 8.65223 299.92 0 315.291V344.734C0.493183 344.708 0.999772 344.775 1.49437 344.95Z" fill="#F4EDFD"/>
<path d="M1.24512 352.315C17.0707 406.209 57.9616 365.063 3.94528 349.568C3.91811 349.672 3.88919 349.776 3.8525 349.88C3.41682 351.115 2.41705 351.987 1.24512 352.315Z" fill="#F4EDFD"/>
<path d="M1.20121 352.328C0.814211 352.431 0.409222 352.474 0 352.452V382.493C3.39372 377.094 4.93818 367.341 1.20121 352.328Z" fill="#F4EDFD"/>
<path d="M1.20099 352.328C1.21581 352.324 1.23027 352.319 1.24509 352.315C2.41702 351.987 3.41679 351.115 3.85247 349.88C3.88916 349.776 3.91809 349.672 3.94525 349.568C3.94913 349.553 3.95442 349.539 3.9583 349.525C4.29521 348.173 3.86905 346.783 2.92149 345.846C2.91126 345.836 2.90138 345.826 2.89115 345.816C2.50415 345.442 2.03531 345.141 1.4945 344.95C0.999908 344.775 0.493672 344.708 0.000488281 344.735V352.452C0.409358 352.474 0.814347 352.431 1.20099 352.328Z" fill="#F6F4B7"/>
<path d="M155.639 400H174.28C177 359.204 152.92 359.204 155.639 400Z" fill="#F6F4B7"/>
<path d="M184.207 400H206.792C217.105 379.599 201.798 373.945 184.207 400Z" fill="#F6F4B7"/>
<path d="M123.129 400H145.714C128.123 373.945 112.816 379.599 123.129 400Z" fill="#F6F4B7"/>
<path d="M298.513 376.304C304.975 385.398 308.79 393.319 310.699 400H311.957C309.229 393.171 305.036 385.486 298.992 376.981C306.497 387.541 313.745 394.986 320.431 400H324.863C317.291 397.041 308.166 389.889 298.513 376.304Z" fill="#F6F4B7"/>
<path d="M300.715 373.217C395.487 364.259 337.948 283.289 298.318 369.843C337.948 283.289 239.055 292.635 294.197 370.232C239.054 292.635 197.701 382.952 292.474 373.996C258.875 377.171 244.424 389.397 241.526 400.001H252.28C250.539 390.851 260.553 377.012 293.298 373.917C217.479 381.083 250.562 308.828 294.676 370.907C250.562 308.828 329.679 301.352 297.973 370.596C329.679 301.352 375.708 366.129 299.891 373.294C345.385 368.995 351.668 393.291 339.886 400H356.414C360.811 388.141 346.995 368.843 300.715 373.217Z" fill="#F6F4B7"/>
<path d="M279.815 400H281.502C286.025 394.237 290.554 386.798 294.871 377.369C291.002 385.82 288.458 393.352 286.958 400H287.928C288.797 393.498 291.048 385.722 295.217 376.618C290.26 387.445 284.952 394.994 279.815 400Z" fill="#F6F4B7"/>
<path d="M299.891 373.294C375.709 366.129 329.68 301.351 297.974 370.596C329.679 301.352 250.563 308.828 294.676 370.907C250.563 308.828 217.479 381.083 293.298 373.917C260.554 377.011 250.539 390.851 252.28 400H279.815C284.952 394.994 290.26 387.445 295.217 376.618C291.048 385.723 288.798 393.499 287.928 400H310.7C308.79 393.32 304.975 385.399 298.513 376.304C308.166 389.889 317.292 397.041 324.863 400H339.886C351.668 393.291 345.386 368.995 299.891 373.294Z" fill="#DDC7F8"/>
<path d="M312.346 -0.000244141H310.975C319.301 31.7014 283.885 34.318 287.815 -0.000244141H286.748C275.542 52.5898 330.822 48.1709 312.346 -0.000244141Z" fill="#F6F4B7"/>
<path d="M280.725 -0.000244141H278.779C266.178 11.4975 254.828 7.84201 252.524 -0.000244141H241.297C238.09 15.3699 259.176 26.5473 280.725 -0.000244141Z" fill="#F6F4B7"/>
<path d="M356.01 -0.000244141H337.667C334.986 0.876762 331.671 0.989298 327.874 -0.000244141H321.78C338.907 12.1515 352.105 8.24629 356.01 -0.000244141Z" fill="#F6F4B7"/>
<path d="M278.779 -0.000244141H252.523C254.828 7.84236 266.178 11.4975 278.779 -0.000244141Z" fill="#DDC7F8"/>
<path d="M337.667 -0.000244141H327.874C331.671 0.989298 334.986 0.876762 337.667 -0.000244141Z" fill="#DDC7F8"/>
<path d="M310.975 -0.000244141H287.815C283.885 34.318 319.301 31.7014 310.975 -0.000244141Z" fill="#DDC7F8"/>
<path d="M399.106 70.2671C343.963 -7.32956 302.61 82.9872 397.382 74.0309C302.61 82.9868 360.149 163.959 399.78 77.4048C383.923 112.037 390.244 131.313 400 137.009V124.153C392.395 119.393 387.64 104.102 400 76.9318V76.9215C368.3 145.722 322.487 81.109 398.207 73.9522C322.388 81.1185 355.471 8.86329 399.585 70.9423C375.1 36.4858 388.579 18.8511 400 21.8201V8.97265C385.648 4.77036 368.229 26.8176 399.106 70.2671Z" fill="#F4EDFD"/>
<path d="M399.585 70.9422C355.471 8.86321 322.388 81.1185 398.207 73.9521C322.487 81.1089 368.3 145.722 400 76.9215V21.82C388.579 18.8514 375.1 36.4857 399.585 70.9422Z" fill="white"/>
<path d="M400 124.153V76.9319C387.64 104.103 392.395 119.393 400 124.153Z" fill="white"/>
<path d="M400 278.717V269.346C395.201 266.969 393.244 259.54 400 250.889V249.119C382.411 265.089 389.518 279.597 400 278.717Z" fill="#F6F4B7"/>
<path d="M400 244.077V243.216C374.49 246.843 375.64 220.085 400 225.644V224.647C362.826 211.828 360.878 253.688 400 244.077Z" fill="#F6F4B7"/>
<path d="M400 218.106V214.797C397.913 209.866 398.286 205.752 400 203.029V190.809C392.672 193.059 388.798 204.119 400 218.106Z" fill="#F6F4B7"/>
<path d="M400 243.217V225.644C375.641 220.085 374.49 246.843 400 243.217Z" fill="#DDC7F8"/>
<path d="M400 269.346V250.889C393.244 259.54 395.201 266.969 400 269.346Z" fill="#DDC7F8"/>
<path d="M400 214.797V203.029C398.286 205.752 397.913 209.865 400 214.797Z" fill="#DDC7F8"/>
<path d="M169.399 54.512C198.824 132.514 240.955 101.75 175.532 49.5957C174.094 51.8411 171.944 53.587 169.399 54.512Z" fill="#F6F4B7"/>
<path d="M175.766 49.2182C245.932 95.5679 262.013 45.3013 177.406 41.8328C177.443 42.2169 177.463 42.6057 177.463 42.9994C177.463 45.2702 176.843 47.395 175.766 49.2182Z" fill="#F6F4B7"/>
<path d="M161.032 54.5103C138.917 134.934 190.966 134.986 168.946 54.6651C167.77 55.0405 166.518 55.2451 165.218 55.2451C163.748 55.2451 162.338 54.9851 161.032 54.5103Z" fill="#F6F4B7"/>
<path d="M154.734 49.3311C88.7886 101.683 131.122 132.69 160.599 54.3412C158.147 53.3414 156.091 51.5723 154.734 49.3311Z" fill="#F6F4B7"/>
<path d="M174.238 34.7194C191.355 21.2913 201.366 9.22913 206.29 -0.000244141H183.562C178.523 7.66456 173.323 17.9364 168.502 31.203C170.736 31.8238 172.713 33.0593 174.238 34.7194Z" fill="#F6F4B7"/>
<path d="M155.994 34.9505C157.443 33.2903 159.332 32.0246 161.481 31.3367C156.647 18.0052 151.428 7.69067 146.372 -0.000244141H123.645C128.596 9.28205 138.696 21.43 155.994 34.9505Z" fill="#F6F4B7"/>
<path d="M165.218 30.7539C166.261 30.7539 167.274 30.8855 168.242 31.131C171.73 18.9926 173.564 8.61353 174.219 -0.000244141H155.716C156.373 8.64422 158.218 19.0663 161.73 31.2605C162.836 30.9327 164.006 30.7539 165.218 30.7539Z" fill="#F6F4B7"/>
<path d="M153.03 41.8118C67.7086 45.1064 83.918 95.8344 154.531 48.9784C153.54 47.21 152.972 45.1716 152.972 42.9996C152.972 42.5985 152.993 42.2026 153.03 41.8118Z" fill="#F6F4B7"/>
<path d="M153.069 41.48C153.365 39.0949 154.344 36.9218 155.807 35.1653C84.1055 -13.161 67.1929 38.1798 153.069 41.48Z" fill="#F6F4B7"/>
<path d="M174.443 34.9518C176.004 36.7397 177.052 38.9841 177.363 41.4595C262.548 37.9843 245.74 -12.9187 174.443 34.9518Z" fill="#F6F4B7"/>
<path d="M168.502 31.2029C168.415 31.1789 168.329 31.1528 168.241 31.1305C167.274 30.885 166.261 30.7534 165.218 30.7534C164.006 30.7534 162.836 30.9323 161.731 31.2604C161.647 31.2851 161.564 31.3101 161.481 31.3366C159.332 32.0245 157.443 33.2902 155.993 34.9504C155.931 35.0217 155.868 35.0922 155.807 35.1653C154.343 36.9217 153.365 39.0948 153.07 41.48C153.056 41.5904 153.041 41.7001 153.031 41.8112C152.993 42.2021 152.972 42.5983 152.972 42.999C152.972 45.1711 153.54 47.2091 154.531 48.9779C154.598 49.0965 154.664 49.2146 154.734 49.3311C156.091 51.5726 158.147 53.3414 160.599 54.3412C160.742 54.3994 160.886 54.4573 161.031 54.5102C162.338 54.9854 163.747 55.245 165.217 55.245C166.518 55.245 167.77 55.0404 168.946 54.665C169.098 54.6164 169.249 54.5659 169.399 54.5119C171.944 53.5873 174.094 51.8411 175.532 49.5956C175.612 49.4711 175.69 49.3455 175.766 49.2182C176.843 47.3954 177.463 45.2702 177.463 42.9994C177.463 42.6057 177.443 42.2169 177.407 41.8328C177.395 41.7075 177.379 41.5837 177.364 41.4595C177.053 38.9841 176.004 36.7397 174.443 34.9518C174.376 34.8739 174.308 34.7955 174.238 34.7193C172.713 33.0592 170.736 31.8237 168.502 31.2029Z" fill="#F6F4B7"/>
<path d="M397.655 351.324C369.74 380.589 390.969 396.483 400 382.766V352.436C399.699 352.406 399.397 352.344 399.099 352.239C398.536 352.04 398.051 351.721 397.655 351.324Z" fill="#F4EDFD"/>
<path d="M396.658 347.59C342.003 334.294 357.185 390.329 397.623 351.292C396.693 350.339 396.292 348.94 396.658 347.59Z" fill="#F4EDFD"/>
<path d="M399.358 344.87C383.545 290.843 342.573 332.053 396.67 347.549C396.692 347.469 396.713 347.388 396.741 347.308C397.178 346.07 398.182 345.196 399.358 344.87Z" fill="#F4EDFD"/>
<path d="M399.398 344.858C399.595 344.805 399.796 344.773 400 344.752V315.611C397.016 321.188 395.857 330.684 399.398 344.858Z" fill="#F4EDFD"/>
<path d="M399.358 344.87C398.182 345.196 397.178 346.07 396.741 347.308C396.713 347.388 396.692 347.468 396.669 347.549C396.665 347.562 396.661 347.577 396.657 347.59C396.292 348.94 396.693 350.339 397.623 351.292C397.633 351.303 397.644 351.314 397.655 351.324C398.051 351.721 398.536 352.04 399.1 352.239C399.397 352.344 399.699 352.406 400 352.436V344.752C399.796 344.773 399.595 344.805 399.399 344.858C399.385 344.862 399.372 344.867 399.358 344.87Z" fill="#F6F4B7"/>
</g>
<defs>
<clipPath id="clip0_933_4296">
<rect width="400" height="400" fill="white"/>
</clipPath>
</defs>
</svg>
