<svg width="458" height="200" viewBox="0 0 458 200" fill="none" xmlns="http://www.w3.org/2000/svg">
<g opacity="0.9">
<path d="M120.011 25.7752L120.179 26.5844L120.817 26.0601C128.672 19.615 137.135 19.0176 143.371 22.3135C149.61 25.6107 153.734 32.8635 152.789 42.3659C152.253 47.7554 149.282 53.1031 144.929 58.0672C140.582 63.0261 134.89 67.5627 128.989 71.3258C123.089 75.0884 116.999 78.0663 111.865 79.9152C109.298 80.8399 106.981 81.4783 105.054 81.7937C103.109 82.112 101.628 82.0896 100.69 81.7585L100.69 81.7584C99.7531 81.4274 98.5864 80.5144 97.2729 79.045C95.9715 77.5893 94.5694 75.6372 93.1523 73.3051C90.3189 68.642 87.4496 62.4992 85.2218 55.8658C82.9936 49.2314 81.414 42.1265 81.1454 35.5371C80.8765 28.9408 81.9232 22.9133 84.891 18.3827C90.1234 10.3944 97.888 7.3412 104.814 8.69392C111.736 10.0461 117.946 15.8264 120.011 25.7752Z" fill="url(#paint0_linear_886_13602)" stroke="url(#paint1_linear_886_13602)"/>
<path d="M121.809 167.17L121.2 166.611L120.988 167.41C118.376 177.229 111.855 182.657 104.868 183.624C97.8783 184.591 90.2944 181.112 85.512 172.847C82.7997 168.159 82.0883 162.082 82.722 155.511C83.355 148.947 85.3256 141.94 87.9176 135.439C90.5093 128.939 93.7143 122.965 96.8015 118.466C98.3455 116.216 99.8534 114.344 101.233 112.963C102.626 111.569 103.842 110.722 104.796 110.443L104.796 110.443C105.75 110.165 107.23 110.224 109.155 110.65C111.061 111.072 113.339 111.837 115.852 112.903C120.875 115.033 126.792 118.344 132.474 122.427C138.158 126.511 143.589 131.356 147.656 136.548C151.726 141.745 154.397 147.249 154.634 152.66C155.052 162.2 150.533 169.213 144.121 172.16C137.712 175.106 129.295 174.04 121.809 167.17Z" fill="url(#paint2_linear_886_13602)" stroke="url(#paint3_linear_886_13602)"/>
<rect x="74.9493" y="69.155" width="39.7244" height="48.552" rx="19.8622" fill="white"/>
<path d="M34.9037 53.603L35.7274 53.6704L35.4049 52.9096C31.4394 43.5547 33.2556 35.2675 38.1781 30.2155C43.1025 25.1615 51.2247 23.2523 60.0736 26.8419C65.0925 28.8779 69.3838 33.2381 72.9172 38.8147C76.4469 44.3856 79.1921 51.1265 81.1362 57.8497C83.0801 64.5718 84.2172 71.2556 84.5416 76.7023C84.7038 79.4263 84.6621 81.8293 84.4206 83.7669C84.1769 85.7226 83.7373 87.1372 83.155 87.9427L83.155 87.9427C82.5728 88.7484 81.3675 89.6099 79.5871 90.4552C77.8231 91.2926 75.5546 92.0866 72.9173 92.7876C67.644 94.1892 60.941 95.2076 53.9485 95.472C46.9549 95.7365 39.6931 95.246 33.2959 93.6433C26.8921 92.0389 21.4053 89.3331 17.8969 85.207C11.7108 77.9322 10.9739 69.6214 14.2268 63.3595C17.4784 57.1002 24.7769 52.7745 34.9037 53.603Z" fill="url(#paint4_linear_886_13602)" stroke="url(#paint5_linear_886_13602)"/>
<path d="M36.4423 142.868L36.7381 142.096L35.9173 142.192C25.8256 143.373 18.381 139.304 14.9134 133.162C11.4443 127.017 11.8912 118.685 17.8197 111.199C21.1822 106.953 26.5716 104.058 32.9156 102.232C39.2532 100.407 46.4935 99.6638 53.4921 99.6844C60.4897 99.7051 67.224 100.489 72.5428 101.706C75.2029 102.315 77.4977 103.029 79.2896 103.805C81.0983 104.588 82.3327 105.407 82.9425 106.192L82.9425 106.192C83.5525 106.976 84.0411 108.375 84.3528 110.321C84.6616 112.249 84.787 114.649 84.7198 117.377C84.5853 122.832 83.6817 129.552 81.9733 136.337C80.2646 143.124 77.7559 149.957 74.4225 155.647C71.0855 161.343 66.9487 165.85 62.0038 168.06C53.2854 171.956 45.1018 170.331 40.0044 165.451C34.909 160.574 32.8053 152.355 36.4423 142.868Z" fill="url(#paint6_linear_886_13602)" stroke="url(#paint7_linear_886_13602)"/>
</g>
<path d="M97.662 110.728H101.484C102.595 110.728 103.477 110.401 104.13 109.748C104.849 109.029 105.208 108.115 105.208 107.004V78.094C105.208 75.8073 104.261 74.664 102.366 74.664C101.386 74.664 100.439 75.056 99.524 75.84C98.6747 76.5587 98.054 77.3427 97.662 78.192V110.728ZM97.662 117V124.84L98.348 131.308C96.584 132.027 94.5587 132.386 92.272 132.386C90.9653 132.386 90.312 131.896 90.312 130.916V77.114C90.312 75.742 90.0507 74.762 89.528 74.174C89.0707 73.586 88.156 73.292 86.784 73.292C86.7187 71.5933 87.1433 70.2867 88.058 69.372C89.038 68.4573 90.5733 68 92.664 68C94.82 68 96.3227 69.0127 97.172 71.038C99.1973 69.0127 101.484 68 104.032 68C106.58 68 108.638 68.882 110.206 70.646C111.774 72.3447 112.558 74.7947 112.558 77.996V106.612C112.558 109.879 111.545 112.427 109.52 114.256C107.495 116.085 104.751 117 101.288 117H97.662ZM133.014 77.016C133.014 74.5333 132.785 71.8547 132.328 68.98C134.288 68.7187 136.411 68.588 138.698 68.588C139.809 68.588 140.364 69.078 140.364 70.058V108.866C140.364 110.238 140.593 111.218 141.05 111.806C141.573 112.394 142.52 112.688 143.892 112.688C143.957 114.387 143.5 115.693 142.52 116.608C141.605 117.523 140.266 117.98 138.502 117.98C135.889 117.98 134.223 116.967 133.504 114.942C131.479 116.967 129.192 117.98 126.644 117.98C124.096 117.98 122.038 117.131 120.47 115.432C118.902 113.668 118.118 111.185 118.118 107.984V77.114C118.118 75.742 117.857 74.762 117.334 74.174C116.877 73.586 115.962 73.292 114.59 73.292C114.525 71.6587 114.982 70.3847 115.962 69.47C117.007 68.49 118.445 68 120.274 68C122.103 68 123.41 68.5227 124.194 69.568C125.043 70.6133 125.468 72.3447 125.468 74.762V107.886C125.468 110.173 126.415 111.316 128.31 111.316C129.29 111.316 130.205 110.957 131.054 110.238C131.969 109.454 132.622 108.637 133.014 107.788V77.016ZM154.824 108.964C154.824 112.1 155.052 114.713 155.51 116.804C153.55 117.196 151.426 117.392 149.14 117.392C148.029 117.392 147.474 116.902 147.474 115.922V77.114C147.474 75.742 147.212 74.762 146.69 74.174C146.232 73.586 145.318 73.292 143.946 73.292C143.88 71.5933 144.305 70.2867 145.22 69.372C146.2 68.4573 147.572 68 149.336 68C151.949 68 153.582 69.3067 154.236 71.92C155.869 69.3067 158.188 68 161.194 68C166.551 68 169.23 70.5807 169.23 75.742V85.542C169.23 86.6527 168.446 87.404 166.878 87.796C166.094 88.0573 165.244 88.188 164.33 88.188C163.48 88.188 162.631 88.09 161.782 87.894C161.978 86.4567 162.076 84.9213 162.076 83.288V78.29C162.076 76.134 161.096 75.056 159.136 75.056C158.221 75.056 157.372 75.4807 156.588 76.33C155.804 77.1793 155.216 78.1267 154.824 79.172V108.964ZM180.82 110.728H184.642C185.753 110.728 186.635 110.401 187.288 109.748C188.007 109.029 188.366 108.115 188.366 107.004V78.094C188.366 75.8073 187.419 74.664 185.524 74.664C184.544 74.664 183.597 75.056 182.682 75.84C181.833 76.5587 181.212 77.3427 180.82 78.192V110.728ZM180.82 117V124.84L181.506 131.308C179.742 132.027 177.717 132.386 175.43 132.386C174.124 132.386 173.47 131.896 173.47 130.916V77.114C173.47 75.742 173.209 74.762 172.686 74.174C172.229 73.586 171.314 73.292 169.942 73.292C169.877 71.5933 170.302 70.2867 171.216 69.372C172.196 68.4573 173.732 68 175.822 68C177.978 68 179.481 69.0127 180.33 71.038C182.356 69.0127 184.642 68 187.19 68C189.738 68 191.796 68.882 193.364 70.646C194.932 72.3447 195.716 74.7947 195.716 77.996V106.612C195.716 109.879 194.704 112.427 192.678 114.256C190.653 116.085 187.909 117 184.446 117H180.82ZM200.982 56.24C200.982 54.7373 200.688 52.7447 200.1 50.262C202.06 49.2167 204.151 48.694 206.372 48.694C207.679 48.694 208.332 49.184 208.332 50.164V108.866C208.332 110.238 208.561 111.218 209.018 111.806C209.541 112.394 210.488 112.688 211.86 112.688C211.926 114.387 211.468 115.693 210.488 116.608C209.574 117.523 208.202 117.98 206.372 117.98C204.543 117.98 203.171 117.425 202.256 116.314C201.407 115.203 200.982 113.374 200.982 110.826V56.24ZM229.427 78.486C229.427 77.1793 229.035 76.1667 228.251 75.448C227.467 74.664 226.487 74.272 225.311 74.272C222.893 74.272 221.685 75.2847 221.685 77.31V91.324L226.389 87.796C228.414 86.2933 229.427 83.19 229.427 78.486ZM214.335 108.278V77.604C214.335 71.2013 218.091 68 225.605 68C233.183 68 236.973 71.5933 236.973 78.78C236.973 81.6547 236.45 84.3007 235.405 86.718C234.359 89.1353 232.922 90.9647 231.093 92.206L221.685 98.674V107.592C221.685 110.336 222.959 111.708 225.507 111.708C228.12 111.708 229.427 110.173 229.427 107.102V104.848L229.133 100.242C229.982 100.046 230.831 99.948 231.681 99.948C232.595 99.948 233.445 100.079 234.229 100.34C235.797 100.732 236.581 101.483 236.581 102.594V109.65C236.581 112.263 235.535 114.321 233.445 115.824C231.419 117.261 228.708 117.98 225.311 117.98C217.993 117.98 214.335 114.746 214.335 108.278ZM259.638 110.728H263.46C264.57 110.728 265.452 110.401 266.106 109.748C266.824 109.029 267.184 108.115 267.184 107.004V78.094C267.184 75.8073 266.236 74.664 264.342 74.664C263.362 74.664 262.414 75.056 261.5 75.84C260.65 76.5587 260.03 77.3427 259.638 78.192V110.728ZM259.638 117V124.84L260.324 131.308C258.56 132.027 256.534 132.386 254.248 132.386C252.941 132.386 252.288 131.896 252.288 130.916V77.114C252.288 75.742 252.026 74.762 251.504 74.174C251.046 73.586 250.132 73.292 248.76 73.292C248.694 71.5933 249.119 70.2867 250.034 69.372C251.014 68.4573 252.549 68 254.64 68C256.796 68 258.298 69.0127 259.148 71.038C261.173 69.0127 263.46 68 266.008 68C268.556 68 270.614 68.882 272.182 70.646C273.75 72.3447 274.534 74.7947 274.534 77.996V106.612C274.534 109.879 273.521 112.427 271.496 114.256C269.47 116.085 266.726 117 263.264 117H259.638ZM294.402 78.486C294.402 77.1793 294.01 76.1667 293.226 75.448C292.442 74.664 291.462 74.272 290.286 74.272C287.868 74.272 286.66 75.2847 286.66 77.31V91.324L291.364 87.796C293.389 86.2933 294.402 83.19 294.402 78.486ZM279.31 108.278V77.604C279.31 71.2013 283.066 68 290.58 68C298.158 68 301.948 71.5933 301.948 78.78C301.948 81.6547 301.425 84.3007 300.38 86.718C299.334 89.1353 297.897 90.9647 296.068 92.206L286.66 98.674V107.592C286.66 110.336 287.934 111.708 290.482 111.708C293.095 111.708 294.402 110.173 294.402 107.102V104.848L294.108 100.242C294.957 100.046 295.806 99.948 296.656 99.948C297.57 99.948 298.42 100.079 299.204 100.34C300.772 100.732 301.556 101.483 301.556 102.594V109.65C301.556 112.263 300.51 114.321 298.42 115.824C296.394 117.261 293.683 117.98 290.286 117.98C282.968 117.98 279.31 114.746 279.31 108.278ZM329.011 109.454C329.011 112.198 327.966 114.321 325.875 115.824C323.784 117.261 321.106 117.98 317.839 117.98C314.638 117.98 312.057 117.163 310.097 115.53C308.202 113.831 307.255 111.577 307.255 108.768V74.86L304.217 75.35C303.76 73.6513 303.531 72.1813 303.531 70.94C303.531 69.6333 303.956 68.98 304.805 68.98H307.451L308.823 59.768C309.084 58.3307 310.293 57.612 312.449 57.612C313.102 57.612 313.821 57.6773 314.605 57.808V68.98H323.131L328.227 68.49C328.554 70.1887 328.717 71.6913 328.717 72.998C328.717 74.2393 328.292 74.86 327.443 74.86H314.605V107.592C314.605 108.964 314.932 110.042 315.585 110.826C316.304 111.545 317.186 111.904 318.231 111.904C320.648 111.904 321.857 110.303 321.857 107.102V99.948L321.563 95.342C322.412 95.146 323.262 95.048 324.111 95.048C325.026 95.048 325.875 95.1787 326.659 95.44C328.227 95.832 329.011 96.5833 329.011 97.694V109.454ZM341.967 99.066C339.811 100.503 338.733 102.921 338.733 106.318C338.733 109.65 339.745 111.316 341.771 111.316C343.861 111.316 345.495 110.14 346.671 107.788V95.93L341.967 99.066ZM343.045 68C350.362 68 354.021 71.234 354.021 77.702V108.866C354.021 110.238 354.249 111.218 354.707 111.806C355.229 112.394 356.177 112.688 357.549 112.688C357.614 114.387 357.157 115.693 356.177 116.608C355.262 117.523 353.923 117.98 352.159 117.98C349.415 117.98 347.749 116.967 347.161 114.942C345.135 116.967 342.751 117.98 340.007 117.98C337.263 117.98 335.074 116.935 333.441 114.844C331.807 112.753 330.991 109.944 330.991 106.416C330.991 101.059 333.245 97.008 337.753 94.264L346.671 88.972V78.388C346.671 75.644 345.364 74.272 342.751 74.272C340.203 74.272 338.929 75.8073 338.929 78.878V82.112L339.223 86.718C338.373 86.914 337.491 87.012 336.577 87.012C335.727 87.012 334.911 86.8813 334.127 86.62C332.559 86.228 331.775 85.4767 331.775 84.366V76.33C331.775 73.7167 332.787 71.6913 334.813 70.254C336.903 68.7513 339.647 68 343.045 68ZM360.087 56.24C360.087 54.7373 359.793 52.7447 359.205 50.262C361.165 49.2167 363.256 48.694 365.477 48.694C366.784 48.694 367.437 49.184 367.437 50.164V108.866C367.437 110.238 367.666 111.218 368.123 111.806C368.646 112.394 369.593 112.688 370.965 112.688C371.03 114.387 370.573 115.693 369.593 116.608C368.678 117.523 367.306 117.98 365.477 117.98C363.648 117.98 362.276 117.425 361.361 116.314C360.512 115.203 360.087 113.374 360.087 110.826V56.24ZM379.907 107.298C379.907 110.238 381.214 111.708 383.827 111.708C386.506 111.708 387.845 110.107 387.845 106.906V102.888C387.845 100.471 386.996 98.7393 385.297 97.694L376.673 92.5C374.125 90.932 372.851 88.286 372.851 84.562V77.702C372.851 74.8273 373.766 72.508 375.595 70.744C377.49 68.9147 380.234 68 383.827 68C387.486 68 390.263 68.7513 392.157 70.254C394.052 71.7567 394.999 73.8147 394.999 76.428V82.602C394.999 83.7127 394.215 84.464 392.647 84.856C391.863 85.1173 391.014 85.248 390.099 85.248C389.25 85.248 388.401 85.15 387.551 84.954C387.747 83.5167 387.845 81.9813 387.845 80.348V78.878C387.845 75.8073 386.604 74.272 384.121 74.272C381.508 74.272 380.201 75.644 380.201 78.388V82.896C380.201 85.1827 380.92 86.718 382.357 87.502L390.981 92.5C393.791 94.068 395.195 96.7467 395.195 100.536V107.886C395.195 111.022 394.248 113.505 392.353 115.334C390.524 117.098 387.813 117.98 384.219 117.98C380.626 117.98 377.817 117.261 375.791 115.824C373.766 114.387 372.753 112.329 372.753 109.65V103.182C372.753 102.071 373.537 101.32 375.105 100.928C375.889 100.667 376.706 100.536 377.555 100.536C378.47 100.536 379.352 100.634 380.201 100.83C380.005 102.267 379.907 103.803 379.907 105.436V107.298Z" fill="#4C4452"/>
<path d="M97.662 110.728H96.662V111.728H97.662V110.728ZM104.13 109.748L103.423 109.041L104.13 109.748ZM99.524 75.84L100.17 76.6034L100.175 76.5993L99.524 75.84ZM97.662 78.192L96.754 77.7729L96.662 77.9724V78.192H97.662ZM97.662 117V116H96.662V117H97.662ZM97.662 124.84H96.662V124.893L96.6676 124.945L97.662 124.84ZM98.348 131.308L98.7253 132.234L99.4217 131.95L99.3424 131.203L98.348 131.308ZM89.528 74.174L88.7386 74.7879L88.7588 74.8138L88.7806 74.8384L89.528 74.174ZM86.784 73.292L85.7847 73.3304L85.8217 74.292H86.784V73.292ZM88.058 69.372L87.3757 68.6409L87.3631 68.6527L87.3509 68.6649L88.058 69.372ZM97.172 71.038L96.2498 71.4247L96.8258 72.7984L97.8791 71.7451L97.172 71.038ZM110.206 70.646L109.459 71.3104L109.465 71.3174L109.471 71.3243L110.206 70.646ZM109.52 114.256L108.85 113.514L109.52 114.256ZM97.662 111.728H101.484V109.728H97.662V111.728ZM101.484 111.728C102.803 111.728 103.959 111.333 104.837 110.455L103.423 109.041C102.994 109.47 102.387 109.728 101.484 109.728V111.728ZM104.837 110.455C105.762 109.531 106.208 108.353 106.208 107.004H104.208C104.208 107.877 103.936 108.528 103.423 109.041L104.837 110.455ZM106.208 107.004V78.094H104.208V107.004H106.208ZM106.208 78.094C106.208 76.8375 105.952 75.7091 105.268 74.8835C104.554 74.0219 103.522 73.664 102.366 73.664V75.664C103.105 75.664 103.494 75.8778 103.727 76.1595C103.991 76.4772 104.208 77.0638 104.208 78.094H106.208ZM102.366 73.664C101.096 73.664 99.926 74.1784 98.8732 75.0807L100.175 76.5993C100.951 75.9336 101.676 75.664 102.366 75.664V73.664ZM98.8781 75.0766C97.9381 75.8719 97.2177 76.7683 96.754 77.7729L98.57 78.6111C98.8903 77.917 99.4112 77.2454 100.17 76.6034L98.8781 75.0766ZM96.662 78.192V110.728H98.662V78.192H96.662ZM96.662 117V124.84H98.662V117H96.662ZM96.6676 124.945L97.3536 131.413L99.3424 131.203L98.6564 124.735L96.6676 124.945ZM97.9707 130.382C96.3479 131.043 94.4547 131.386 92.272 131.386V133.386C94.6627 133.386 96.8201 133.01 98.7253 132.234L97.9707 130.382ZM92.272 131.386C91.7148 131.386 91.4793 131.276 91.402 131.218C91.373 131.197 91.3596 131.178 91.3483 131.153C91.3345 131.122 91.312 131.051 91.312 130.916H89.312C89.312 131.65 89.5718 132.346 90.202 132.818C90.7781 133.251 91.5225 133.386 92.272 133.386V131.386ZM91.312 130.916V77.114H89.312V130.916H91.312ZM91.312 77.114C91.312 75.6631 91.0448 74.3752 90.2754 73.5096L88.7806 74.8384C89.0565 75.1488 89.312 75.8209 89.312 77.114H91.312ZM90.3174 73.5601C89.5592 72.5852 88.2204 72.292 86.784 72.292V74.292C88.0916 74.292 88.5822 74.5868 88.7386 74.7879L90.3174 73.5601ZM87.7833 73.2536C87.7251 71.7413 88.1042 70.74 88.7651 70.0791L87.3509 68.6649C86.1825 69.8333 85.7122 71.4453 85.7847 73.3304L87.7833 73.2536ZM88.7403 70.1031C89.455 69.436 90.6902 69 92.664 69V67C90.4565 67 88.621 67.4787 87.3757 68.6409L88.7403 70.1031ZM92.664 69C93.5814 69 94.2922 69.2134 94.8491 69.5888C95.4074 69.965 95.8844 70.5533 96.2498 71.4247L98.0942 70.6513C97.6103 69.4973 96.9113 68.5667 95.9669 67.9302C95.0211 67.2929 93.9026 67 92.664 67V69ZM97.8791 71.7451C99.7423 69.8819 101.783 69 104.032 69V67C101.185 67 98.6524 68.1434 96.4649 70.3309L97.8791 71.7451ZM104.032 69C106.32 69 108.097 69.7783 109.459 71.3104L110.953 69.9816C109.179 67.9857 106.84 67 104.032 67V69ZM109.471 71.3243C110.812 72.7773 111.558 74.9486 111.558 77.996H113.558C113.558 74.6407 112.736 71.912 110.941 69.9677L109.471 71.3243ZM111.558 77.996V106.612H113.558V77.996H111.558ZM111.558 106.612C111.558 109.656 110.624 111.911 108.85 113.514L110.19 114.998C112.467 112.942 113.558 110.101 113.558 106.612H111.558ZM108.85 113.514C107.054 115.136 104.572 116 101.288 116V118C104.929 118 107.936 117.034 110.19 114.998L108.85 113.514ZM101.288 116H97.662V118H101.288V116ZM132.328 68.98L132.196 67.9888L131.179 68.1243L131.34 69.1371L132.328 68.98ZM141.05 111.806L140.261 112.42L140.281 112.446L140.303 112.47L141.05 111.806ZM143.892 112.688L144.891 112.65L144.854 111.688H143.892V112.688ZM142.52 116.608L141.838 115.877L141.825 115.889L141.813 115.901L142.52 116.608ZM133.504 114.942L134.446 114.608L133.917 113.115L132.797 114.235L133.504 114.942ZM120.47 115.432L119.723 116.096L119.729 116.103L119.735 116.11L120.47 115.432ZM117.334 74.174L116.545 74.7879L116.565 74.8138L116.587 74.8384L117.334 74.174ZM114.59 73.292L113.591 73.332L113.629 74.292H114.59V73.292ZM115.962 69.47L116.644 70.2011L116.646 70.1995L115.962 69.47ZM124.194 69.568L123.394 70.168L123.406 70.1835L123.418 70.1986L124.194 69.568ZM131.054 110.238L131.7 111.001L131.705 110.997L131.054 110.238ZM133.014 107.788L133.922 108.207L134.014 108.008V107.788H133.014ZM134.014 77.016C134.014 74.4727 133.78 71.7409 133.316 68.8229L131.34 69.1371C131.791 71.9684 132.014 74.594 132.014 77.016H134.014ZM132.46 69.9712C134.37 69.7166 136.449 69.588 138.698 69.588V67.588C136.374 67.588 134.206 67.7208 132.196 67.9888L132.46 69.9712ZM138.698 69.588C139.128 69.588 139.263 69.6855 139.286 69.7053C139.295 69.7134 139.309 69.7275 139.324 69.7683C139.342 69.815 139.364 69.905 139.364 70.058H141.364C141.364 69.3791 141.166 68.6969 140.609 68.2057C140.076 67.7355 139.379 67.588 138.698 67.588V69.588ZM139.364 70.058V108.866H141.364V70.058H139.364ZM139.364 108.866C139.364 110.297 139.592 111.561 140.261 112.42L141.839 111.192C141.593 110.875 141.364 110.179 141.364 108.866H139.364ZM140.303 112.47C141.117 113.386 142.435 113.688 143.892 113.688V111.688C142.605 111.688 142.029 111.402 141.797 111.142L140.303 112.47ZM142.893 112.726C142.95 114.219 142.551 115.211 141.838 115.877L143.202 117.339C144.449 116.175 144.965 114.555 144.891 112.65L142.893 112.726ZM141.813 115.901C141.146 116.568 140.1 116.98 138.502 116.98V118.98C140.432 118.98 142.065 118.477 143.227 117.315L141.813 115.901ZM138.502 116.98C137.318 116.98 136.444 116.75 135.812 116.366C135.196 115.992 134.737 115.427 134.446 114.608L132.562 115.276C132.989 116.482 133.723 117.437 134.773 118.075C135.807 118.704 137.073 118.98 138.502 118.98V116.98ZM132.797 114.235C130.934 116.098 128.893 116.98 126.644 116.98V118.98C129.491 118.98 132.024 117.837 134.211 115.649L132.797 114.235ZM126.644 116.98C124.343 116.98 122.563 116.225 121.205 114.754L119.735 116.11C121.513 118.036 123.849 118.98 126.644 118.98V116.98ZM121.217 114.768C119.862 113.243 119.118 111.029 119.118 107.984H117.118C117.118 111.342 117.942 114.093 119.723 116.096L121.217 114.768ZM119.118 107.984V77.114H117.118V107.984H119.118ZM119.118 77.114C119.118 75.6631 118.851 74.3752 118.081 73.5096L116.587 74.8384C116.862 75.1488 117.118 75.8209 117.118 77.114H119.118ZM118.123 73.5601C117.365 72.5852 116.026 72.292 114.59 72.292V74.292C115.898 74.292 116.388 74.5868 116.545 74.7879L118.123 73.5601ZM115.589 73.252C115.533 71.8399 115.923 70.874 116.644 70.2011L115.28 68.7389C114.041 69.8953 113.517 71.4774 113.591 73.332L115.589 73.252ZM116.646 70.1995C117.459 69.4375 118.626 69 120.274 69V67C118.264 67 116.556 67.5425 115.278 68.7405L116.646 70.1995ZM120.274 69C121.923 69 122.867 69.4653 123.394 70.168L124.994 68.968C123.953 67.5801 122.284 67 120.274 67V69ZM123.418 70.1986C124.045 70.971 124.468 72.412 124.468 74.762H126.468C126.468 72.2773 126.041 70.2557 124.97 68.9374L123.418 70.1986ZM124.468 74.762V107.886H126.468V74.762H124.468ZM124.468 107.886C124.468 109.143 124.724 110.271 125.408 111.097C126.122 111.958 127.154 112.316 128.31 112.316V110.316C127.571 110.316 127.182 110.102 126.948 109.82C126.685 109.503 126.468 108.916 126.468 107.886H124.468ZM128.31 112.316C129.558 112.316 130.696 111.851 131.7 111.001L130.408 109.475C129.713 110.062 129.022 110.316 128.31 110.316V112.316ZM131.705 110.997C132.698 110.146 133.455 109.219 133.922 108.207L132.106 107.369C131.789 108.056 131.239 108.762 130.403 109.479L131.705 110.997ZM134.014 107.788V77.016H132.014V107.788H134.014ZM155.51 116.804L155.706 117.785L156.704 117.585L156.486 116.59L155.51 116.804ZM146.69 74.174L145.9 74.7879L145.92 74.8138L145.942 74.8384L146.69 74.174ZM143.946 73.292L142.946 73.3304L142.983 74.292H143.946V73.292ZM145.22 69.372L144.537 68.6409L144.525 68.6527L144.512 68.6649L145.22 69.372ZM154.236 71.92L153.265 72.1625L153.836 74.4457L155.084 72.45L154.236 71.92ZM166.878 87.796L166.635 86.8259L166.598 86.8352L166.561 86.8473L166.878 87.796ZM161.782 87.894L160.791 87.7589L160.667 88.6632L161.557 88.8684L161.782 87.894ZM156.588 76.33L157.322 77.0083H157.322L156.588 76.33ZM154.824 79.172L153.887 78.8209L153.824 78.9907V79.172H154.824ZM153.824 108.964C153.824 112.142 154.055 114.833 154.533 117.018L156.486 116.59C156.05 114.594 155.824 112.058 155.824 108.964H153.824ZM155.313 115.823C153.426 116.201 151.37 116.392 149.14 116.392V118.392C151.483 118.392 153.673 118.191 155.706 117.785L155.313 115.823ZM149.14 116.392C148.71 116.392 148.574 116.294 148.552 116.275C148.543 116.267 148.529 116.253 148.513 116.212C148.496 116.165 148.474 116.075 148.474 115.922H146.474C146.474 116.601 146.672 117.283 147.228 117.774C147.761 118.245 148.459 118.392 149.14 118.392V116.392ZM148.474 115.922V77.114H146.474V115.922H148.474ZM148.474 77.114C148.474 75.6631 148.206 74.3752 147.437 73.5096L145.942 74.8384C146.218 75.1488 146.474 75.8209 146.474 77.114H148.474ZM147.479 73.5601C146.721 72.5852 145.382 72.292 143.946 72.292V74.292C145.253 74.292 145.744 74.5868 145.9 74.7879L147.479 73.5601ZM144.945 73.2536C144.887 71.7413 145.266 70.74 145.927 70.0791L144.512 68.6649C143.344 69.8333 142.874 71.4453 142.946 73.3304L144.945 73.2536ZM145.902 70.1031C146.644 69.4101 147.743 69 149.336 69V67C147.4 67 145.755 67.5045 144.537 68.6409L145.902 70.1031ZM149.336 69C150.473 69 151.297 69.2818 151.896 69.7609C152.498 70.2425 152.976 71.0067 153.265 72.1625L155.206 71.6775C154.841 70.2199 154.177 69.0242 153.145 68.1991C152.111 67.3715 150.811 67 149.336 67V69ZM155.084 72.45C156.54 70.12 158.544 69 161.194 69V67C157.833 67 155.198 68.4933 153.388 71.39L155.084 72.45ZM161.194 69C163.727 69 165.442 69.6107 166.527 70.6557C167.604 71.6939 168.23 73.3252 168.23 75.742H170.23C170.23 72.9975 169.515 70.7578 167.914 69.2153C166.32 67.6796 164.017 67 161.194 67V69ZM168.23 75.742V85.542H170.23V75.742H168.23ZM168.23 85.542C168.23 85.8318 168.14 86.0343 167.95 86.2165C167.73 86.427 167.327 86.6529 166.635 86.8259L167.12 88.7661C167.996 88.5471 168.769 88.2014 169.333 87.6605C169.927 87.0914 170.23 86.3629 170.23 85.542H168.23ZM166.561 86.8473C165.89 87.0712 165.148 87.188 164.33 87.188V89.188C165.34 89.188 166.298 89.0434 167.194 88.7447L166.561 86.8473ZM164.33 87.188C163.558 87.188 162.784 87.099 162.006 86.9196L161.557 88.8684C162.478 89.081 163.403 89.188 164.33 89.188V87.188ZM162.772 88.0291C162.975 86.5418 163.076 84.961 163.076 83.288H161.076C161.076 84.8817 160.98 86.3715 160.791 87.7589L162.772 88.0291ZM163.076 83.288V78.29H161.076V83.288H163.076ZM163.076 78.29C163.076 77.0802 162.803 75.9862 162.081 75.1918C161.342 74.3794 160.296 74.056 159.136 74.056V76.056C159.936 76.056 160.359 76.2716 160.601 76.5372C160.858 76.8208 161.076 77.3438 161.076 78.29H163.076ZM159.136 74.056C157.872 74.056 156.773 74.655 155.853 75.6517L157.322 77.0083C157.97 76.3064 158.57 76.056 159.136 76.056V74.056ZM155.853 75.6517C154.984 76.5926 154.326 77.6502 153.887 78.8209L155.76 79.5231C156.105 78.6031 156.623 77.766 157.322 77.0083L155.853 75.6517ZM153.824 79.172V108.964H155.824V79.172H153.824ZM180.82 110.728H179.82V111.728H180.82V110.728ZM187.288 109.748L186.581 109.041H186.581L187.288 109.748ZM182.682 75.84L183.328 76.6034L183.333 76.5993L182.682 75.84ZM180.82 78.192L179.912 77.7729L179.82 77.9724V78.192H180.82ZM180.82 117V116H179.82V117H180.82ZM180.82 124.84H179.82V124.893L179.826 124.945L180.82 124.84ZM181.506 131.308L181.884 132.234L182.58 131.95L182.501 131.203L181.506 131.308ZM172.686 74.174L171.897 74.7879L171.917 74.8138L171.939 74.8384L172.686 74.174ZM169.942 73.292L168.943 73.3304L168.98 74.292H169.942V73.292ZM171.216 69.372L170.534 68.6409L170.521 68.6527L170.509 68.6649L171.216 69.372ZM180.33 71.038L179.408 71.4247L179.984 72.7984L181.037 71.7451L180.33 71.038ZM193.364 70.646L192.617 71.3104L192.623 71.3174L192.63 71.3243L193.364 70.646ZM192.678 114.256L192.008 113.514L192.678 114.256ZM180.82 111.728H184.642V109.728H180.82V111.728ZM184.642 111.728C185.961 111.728 187.118 111.333 187.995 110.455L186.581 109.041C186.152 109.47 185.545 109.728 184.642 109.728V111.728ZM187.995 110.455C188.92 109.531 189.366 108.353 189.366 107.004H187.366C187.366 107.877 187.094 108.528 186.581 109.041L187.995 110.455ZM189.366 107.004V78.094H187.366V107.004H189.366ZM189.366 78.094C189.366 76.8375 189.11 75.7091 188.426 74.8835C187.712 74.0219 186.681 73.664 185.524 73.664V75.664C186.263 75.664 186.652 75.8778 186.886 76.1595C187.149 76.4772 187.366 77.0638 187.366 78.094H189.366ZM185.524 73.664C184.254 73.664 183.084 74.1784 182.032 75.0807L183.333 76.5993C184.11 75.9336 184.834 75.664 185.524 75.664V73.664ZM182.036 75.0766C181.097 75.8719 180.376 76.7683 179.912 77.7729L181.728 78.6111C182.049 77.917 182.57 77.2454 183.328 76.6034L182.036 75.0766ZM179.82 78.192V110.728H181.82V78.192H179.82ZM179.82 117V124.84H181.82V117H179.82ZM179.826 124.945L180.512 131.413L182.501 131.203L181.815 124.735L179.826 124.945ZM181.129 130.382C179.506 131.043 177.613 131.386 175.43 131.386V133.386C177.821 133.386 179.978 133.01 181.884 132.234L181.129 130.382ZM175.43 131.386C174.873 131.386 174.638 131.276 174.56 131.218C174.531 131.197 174.518 131.178 174.507 131.153C174.493 131.122 174.47 131.051 174.47 130.916H172.47C172.47 131.65 172.73 132.346 173.36 132.818C173.936 133.251 174.681 133.386 175.43 133.386V131.386ZM174.47 130.916V77.114H172.47V130.916H174.47ZM174.47 77.114C174.47 75.6631 174.203 74.3752 173.434 73.5096L171.939 74.8384C172.215 75.1488 172.47 75.8209 172.47 77.114H174.47ZM173.476 73.5601C172.718 72.5852 171.379 72.292 169.942 72.292V74.292C171.25 74.292 171.741 74.5868 171.897 74.7879L173.476 73.5601ZM170.942 73.2536C170.883 71.7413 171.263 70.74 171.923 70.0791L170.509 68.6649C169.341 69.8333 168.871 71.4453 168.943 73.3304L170.942 73.2536ZM171.899 70.1031C172.613 69.436 173.849 69 175.822 69V67C173.615 67 171.779 67.4787 170.534 68.6409L171.899 70.1031ZM175.822 69C176.74 69 177.451 69.2134 178.007 69.5888C178.566 69.965 179.043 70.5533 179.408 71.4247L181.253 70.6513C180.769 69.4973 180.07 68.5667 179.125 67.9302C178.179 67.2929 177.061 67 175.822 67V69ZM181.037 71.7451C182.901 69.8819 184.941 69 187.19 69V67C184.343 67 181.811 68.1434 179.623 70.3309L181.037 71.7451ZM187.19 69C189.478 69 191.255 69.7783 192.617 71.3104L194.112 69.9816C192.338 67.9857 189.998 67 187.19 67V69ZM192.63 71.3243C193.971 72.7773 194.716 74.9486 194.716 77.996H196.716C196.716 74.6407 195.894 71.912 194.099 69.9677L192.63 71.3243ZM194.716 77.996V106.612H196.716V77.996H194.716ZM194.716 106.612C194.716 109.656 193.782 111.911 192.008 113.514L193.349 114.998C195.625 112.942 196.716 110.101 196.716 106.612H194.716ZM192.008 113.514C190.212 115.136 187.73 116 184.446 116V118C188.088 118 191.094 117.034 193.349 114.998L192.008 113.514ZM184.446 116H180.82V118H184.446V116ZM200.1 50.262L199.63 49.3796L198.95 49.7424L199.127 50.4925L200.1 50.262ZM209.018 111.806L208.229 112.42L208.249 112.446L208.271 112.47L209.018 111.806ZM211.86 112.688L212.86 112.65L212.823 111.688H211.86V112.688ZM210.488 116.608L209.806 115.877L209.793 115.889L209.781 115.901L210.488 116.608ZM202.256 116.314L201.462 116.921L201.473 116.936L201.484 116.95L202.256 116.314ZM201.982 56.24C201.982 54.6244 201.669 52.5452 201.073 50.0315L199.127 50.4925C199.708 52.9442 199.982 54.8502 199.982 56.24H201.982ZM200.571 51.1443C202.386 50.1763 204.315 49.694 206.372 49.694V47.694C203.987 47.694 201.735 48.2571 199.63 49.3796L200.571 51.1443ZM206.372 49.694C206.93 49.694 207.165 49.8035 207.242 49.8615C207.271 49.8833 207.285 49.9017 207.296 49.927C207.31 49.9582 207.332 50.029 207.332 50.164H209.332C209.332 49.43 209.072 48.7341 208.442 48.2615C207.866 47.8295 207.122 47.694 206.372 47.694V49.694ZM207.332 50.164V108.866H209.332V50.164H207.332ZM207.332 108.866C207.332 110.297 207.561 111.561 208.229 112.42L209.808 111.192C209.561 110.875 209.332 110.179 209.332 108.866H207.332ZM208.271 112.47C209.085 113.386 210.403 113.688 211.86 113.688V111.688C210.573 111.688 209.997 111.402 209.766 111.142L208.271 112.47ZM210.861 112.726C210.918 114.219 210.519 115.211 209.806 115.877L211.171 117.339C212.418 116.175 212.933 114.555 212.86 112.65L210.861 112.726ZM209.781 115.901C209.12 116.562 208.048 116.98 206.372 116.98V118.98C208.356 118.98 210.027 118.483 211.195 117.315L209.781 115.901ZM206.372 116.98C204.754 116.98 203.703 116.498 203.028 115.678L201.484 116.95C202.639 118.351 204.332 118.98 206.372 118.98V116.98ZM203.051 115.707C202.406 114.864 201.982 113.313 201.982 110.826H199.982C199.982 113.435 200.408 115.543 201.462 116.921L203.051 115.707ZM201.982 110.826V56.24H199.982V110.826H201.982ZM228.251 75.448L227.544 76.1551L227.559 76.1705L227.575 76.1852L228.251 75.448ZM221.685 91.324H220.685V93.324L222.285 92.124L221.685 91.324ZM226.389 87.796L225.793 86.9929L225.789 86.996L226.389 87.796ZM231.093 92.206L230.531 91.3785L230.526 91.382L231.093 92.206ZM221.685 98.674L221.118 97.85L220.685 98.148V98.674H221.685ZM229.427 104.848H230.427V104.816L230.425 104.784L229.427 104.848ZM229.133 100.242L228.908 99.2676L228.081 99.4585L228.135 100.306L229.133 100.242ZM234.229 100.34L233.913 101.289L233.949 101.301L233.986 101.31L234.229 100.34ZM233.445 115.824L234.024 116.64L234.028 116.636L233.445 115.824ZM230.427 78.486C230.427 76.9681 229.963 75.661 228.927 74.7108L227.575 76.1852C228.107 76.6723 228.427 77.3906 228.427 78.486H230.427ZM228.958 74.7409C227.974 73.7571 226.734 73.272 225.311 73.272V75.272C226.239 75.272 226.96 75.5709 227.544 76.1551L228.958 74.7409ZM225.311 73.272C223.987 73.272 222.808 73.5456 221.949 74.265C221.057 75.0127 220.685 76.0922 220.685 77.31H222.685C222.685 76.5025 222.917 76.0629 223.234 75.798C223.584 75.5047 224.217 75.272 225.311 75.272V73.272ZM220.685 77.31V91.324H222.685V77.31H220.685ZM222.285 92.124L226.989 88.596L225.789 86.996L221.085 90.524L222.285 92.124ZM226.985 88.5991C229.417 86.7942 230.427 83.2486 230.427 78.486H228.427C228.427 83.1314 227.411 85.7924 225.793 86.9929L226.985 88.5991ZM215.335 108.278V77.604H213.335V108.278H215.335ZM215.335 77.604C215.335 74.6024 216.208 72.5197 217.801 71.1621C219.425 69.7785 221.967 69 225.605 69V67C221.73 67 218.637 67.8222 216.504 69.6399C214.34 71.4837 213.335 74.203 213.335 77.604H215.335ZM225.605 69C229.253 69 231.803 69.8658 233.443 71.4206C235.072 72.966 235.973 75.3548 235.973 78.78H237.973C237.973 75.0186 236.979 72.0173 234.819 69.9694C232.669 67.9309 229.535 67 225.605 67V69ZM235.973 78.78C235.973 81.5307 235.473 84.0401 234.487 86.3211L236.323 87.1149C237.427 84.5612 237.973 81.7786 237.973 78.78H235.973ZM234.487 86.3211C233.502 88.5977 232.175 90.2629 230.531 91.3785L231.654 93.0335C233.669 91.6665 235.217 89.6729 236.323 87.1149L234.487 86.3211ZM230.526 91.382L221.118 97.85L222.251 99.498L231.659 93.03L230.526 91.382ZM220.685 98.674V107.592H222.685V98.674H220.685ZM220.685 107.592C220.685 109.1 221.033 110.418 221.908 111.359C222.795 112.315 224.059 112.708 225.507 112.708V110.708C224.407 110.708 223.76 110.415 223.373 109.999C222.973 109.568 222.685 108.828 222.685 107.592H220.685ZM225.507 112.708C227.014 112.708 228.312 112.258 229.208 111.205C230.078 110.182 230.427 108.756 230.427 107.102H228.427C228.427 108.519 228.122 109.395 227.685 109.908C227.275 110.391 226.613 110.708 225.507 110.708V112.708ZM230.427 107.102V104.848H228.427V107.102H230.427ZM230.425 104.784L230.131 100.178L228.135 100.306L228.429 104.912L230.425 104.784ZM229.358 101.216C230.135 101.037 230.909 100.948 231.681 100.948V98.948C230.754 98.948 229.829 99.055 228.908 99.2676L229.358 101.216ZM231.681 100.948C232.499 100.948 233.241 101.065 233.913 101.289L234.545 99.3913C233.649 99.0926 232.692 98.948 231.681 98.948V100.948ZM233.986 101.31C234.678 101.483 235.081 101.709 235.301 101.919C235.491 102.102 235.581 102.304 235.581 102.594H237.581C237.581 101.773 237.279 101.045 236.685 100.476C236.12 99.9346 235.348 99.5889 234.471 99.3699L233.986 101.31ZM235.581 102.594V109.65H237.581V102.594H235.581ZM235.581 109.65C235.581 111.947 234.686 113.701 232.861 115.012L234.028 116.636C236.385 114.942 237.581 112.579 237.581 109.65H235.581ZM232.866 115.008C231.062 116.289 228.575 116.98 225.311 116.98V118.98C228.841 118.98 231.777 118.234 234.024 116.64L232.866 115.008ZM225.311 116.98C221.778 116.98 219.315 116.197 217.741 114.805C216.191 113.435 215.335 111.324 215.335 108.278H213.335C213.335 111.7 214.308 114.44 216.417 116.304C218.501 118.146 221.526 118.98 225.311 118.98V116.98ZM259.638 110.728H258.638V111.728H259.638V110.728ZM266.106 109.748L265.399 109.041L266.106 109.748ZM261.5 75.84L262.146 76.6034L262.15 76.5993L261.5 75.84ZM259.638 78.192L258.73 77.7729L258.638 77.9724V78.192H259.638ZM259.638 117V116H258.638V117H259.638ZM259.638 124.84H258.638V124.893L258.643 124.945L259.638 124.84ZM260.324 131.308L260.701 132.234L261.397 131.95L261.318 131.203L260.324 131.308ZM251.504 74.174L250.714 74.7879L250.734 74.8138L250.756 74.8384L251.504 74.174ZM248.76 73.292L247.76 73.3304L247.797 74.292H248.76V73.292ZM250.034 69.372L249.351 68.6409L249.339 68.6527L249.327 68.6649L250.034 69.372ZM259.148 71.038L258.225 71.4247L258.801 72.7984L259.855 71.7451L259.148 71.038ZM272.182 70.646L271.434 71.3104L271.44 71.3174L271.447 71.3243L272.182 70.646ZM271.496 114.256L270.825 113.514L271.496 114.256ZM259.638 111.728H263.46V109.728H259.638V111.728ZM263.46 111.728C264.778 111.728 265.935 111.333 266.813 110.455L265.399 109.041C264.97 109.47 264.362 109.728 263.46 109.728V111.728ZM266.813 110.455C267.737 109.531 268.184 108.353 268.184 107.004H266.184C266.184 107.877 265.911 108.528 265.399 109.041L266.813 110.455ZM268.184 107.004V78.094H266.184V107.004H268.184ZM268.184 78.094C268.184 76.8375 267.927 75.7091 267.243 74.8835C266.529 74.0219 265.498 73.664 264.342 73.664V75.664C265.08 75.664 265.47 75.8778 265.703 76.1595C265.966 76.4772 266.184 77.0638 266.184 78.094H268.184ZM264.342 73.664C263.072 73.664 261.902 74.1784 260.849 75.0807L262.15 76.5993C262.927 75.9336 263.652 75.664 264.342 75.664V73.664ZM260.854 75.0766C259.914 75.8719 259.193 76.7683 258.73 77.7729L260.546 78.6111C260.866 77.917 261.387 77.2454 262.146 76.6034L260.854 75.0766ZM258.638 78.192V110.728H260.638V78.192H258.638ZM258.638 117V124.84H260.638V117H258.638ZM258.643 124.945L259.329 131.413L261.318 131.203L260.632 124.735L258.643 124.945ZM259.946 130.382C258.324 131.043 256.43 131.386 254.248 131.386V133.386C256.638 133.386 258.796 133.01 260.701 132.234L259.946 130.382ZM254.248 131.386C253.69 131.386 253.455 131.276 253.378 131.218C253.349 131.197 253.335 131.178 253.324 131.153C253.31 131.122 253.288 131.051 253.288 130.916H251.288C251.288 131.65 251.547 132.346 252.178 132.818C252.754 133.251 253.498 133.386 254.248 133.386V131.386ZM253.288 130.916V77.114H251.288V130.916H253.288ZM253.288 77.114C253.288 75.6631 253.02 74.3752 252.251 73.5096L250.756 74.8384C251.032 75.1488 251.288 75.8209 251.288 77.114H253.288ZM252.293 73.5601C251.535 72.5852 250.196 72.292 248.76 72.292V74.292C250.067 74.292 250.558 74.5868 250.714 74.7879L252.293 73.5601ZM249.759 73.2536C249.701 71.7413 250.08 70.74 250.741 70.0791L249.327 68.6649C248.158 69.8333 247.688 71.4453 247.76 73.3304L249.759 73.2536ZM250.716 70.1031C251.431 69.436 252.666 69 254.64 69V67C252.432 67 250.597 67.4787 249.351 68.6409L250.716 70.1031ZM254.64 69C255.557 69 256.268 69.2134 256.825 69.5888C257.383 69.965 257.86 70.5533 258.225 71.4247L260.07 70.6513C259.586 69.4973 258.887 68.5667 257.942 67.9302C256.997 67.2929 255.878 67 254.64 67V69ZM259.855 71.7451C261.718 69.8819 263.759 69 266.008 69V67C263.161 67 260.628 68.1434 258.441 70.3309L259.855 71.7451ZM266.008 69C268.296 69 270.072 69.7783 271.434 71.3104L272.929 69.9816C271.155 67.9857 268.816 67 266.008 67V69ZM271.447 71.3243C272.788 72.7773 273.534 74.9486 273.534 77.996H275.534C275.534 74.6407 274.711 71.912 272.916 69.9677L271.447 71.3243ZM273.534 77.996V106.612H275.534V77.996H273.534ZM273.534 106.612C273.534 109.656 272.6 111.911 270.825 113.514L272.166 114.998C274.442 112.942 275.534 110.101 275.534 106.612H273.534ZM270.825 113.514C269.029 115.136 266.548 116 263.264 116V118C266.905 118 269.911 117.034 272.166 114.998L270.825 113.514ZM263.264 116H259.638V118H263.264V116ZM293.226 75.448L292.518 76.1551L292.534 76.1705L292.55 76.1852L293.226 75.448ZM286.66 91.324H285.66V93.324L287.26 92.124L286.66 91.324ZM291.364 87.796L290.768 86.9929L290.764 86.996L291.364 87.796ZM296.068 92.206L295.506 91.3785L295.501 91.382L296.068 92.206ZM286.66 98.674L286.093 97.85L285.66 98.148V98.674H286.66ZM294.402 104.848H295.402V104.816L295.4 104.784L294.402 104.848ZM294.108 100.242L293.883 99.2676L293.056 99.4585L293.11 100.306L294.108 100.242ZM299.204 100.34L298.887 101.289L298.924 101.301L298.961 101.31L299.204 100.34ZM298.42 115.824L298.998 116.64L299.003 116.636L298.42 115.824ZM295.402 78.486C295.402 76.9681 294.938 75.661 293.901 74.7108L292.55 76.1852C293.081 76.6723 293.402 77.3906 293.402 78.486H295.402ZM293.933 74.7409C292.949 73.7571 291.709 73.272 290.286 73.272V75.272C291.214 75.272 291.934 75.5709 292.518 76.1551L293.933 74.7409ZM290.286 73.272C288.962 73.272 287.782 73.5456 286.924 74.265C286.031 75.0127 285.66 76.0922 285.66 77.31H287.66C287.66 76.5025 287.892 76.0629 288.208 75.798C288.558 75.5047 289.192 75.272 290.286 75.272V73.272ZM285.66 77.31V91.324H287.66V77.31H285.66ZM287.26 92.124L291.964 88.596L290.764 86.996L286.06 90.524L287.26 92.124ZM291.959 88.5991C294.392 86.7942 295.402 83.2486 295.402 78.486H293.402C293.402 83.1314 292.386 85.7924 290.768 86.9929L291.959 88.5991ZM280.31 108.278V77.604H278.31V108.278H280.31ZM280.31 77.604C280.31 74.6024 281.183 72.5197 282.776 71.1621C284.399 69.7785 286.941 69 290.58 69V67C286.704 67 283.611 67.8222 281.478 69.6399C279.315 71.4837 278.31 74.203 278.31 77.604H280.31ZM290.58 69C294.228 69 296.778 69.8658 298.418 71.4206C300.047 72.966 300.948 75.3548 300.948 78.78H302.948C302.948 75.0186 301.953 72.0173 299.794 69.9694C297.644 67.9309 294.51 67 290.58 67V69ZM300.948 78.78C300.948 81.5307 300.448 84.0401 299.462 86.3211L301.297 87.1149C302.402 84.5612 302.948 81.7786 302.948 78.78H300.948ZM299.462 86.3211C298.477 88.5977 297.15 90.2629 295.506 91.3785L296.629 93.0335C298.644 91.6665 300.191 89.6729 301.297 87.1149L299.462 86.3211ZM295.501 91.382L286.093 97.85L287.226 99.498L296.634 93.03L295.501 91.382ZM285.66 98.674V107.592H287.66V98.674H285.66ZM285.66 107.592C285.66 109.1 286.008 110.418 286.882 111.359C287.769 112.315 289.034 112.708 290.482 112.708V110.708C289.382 110.708 288.735 110.415 288.348 109.999C287.948 109.568 287.66 108.828 287.66 107.592H285.66ZM290.482 112.708C291.988 112.708 293.287 112.258 294.183 111.205C295.053 110.182 295.402 108.756 295.402 107.102H293.402C293.402 108.519 293.097 109.395 292.66 109.908C292.25 110.391 291.588 110.708 290.482 110.708V112.708ZM295.402 107.102V104.848H293.402V107.102H295.402ZM295.4 104.784L295.106 100.178L293.11 100.306L293.404 104.912L295.4 104.784ZM294.332 101.216C295.11 101.037 295.884 100.948 296.656 100.948V98.948C295.729 98.948 294.804 99.055 293.883 99.2676L294.332 101.216ZM296.656 100.948C297.474 100.948 298.216 101.065 298.887 101.289L299.52 99.3913C298.624 99.0926 297.666 98.948 296.656 98.948V100.948ZM298.961 101.31C299.653 101.483 300.056 101.709 300.276 101.919C300.466 102.102 300.556 102.304 300.556 102.594H302.556C302.556 101.773 302.253 101.045 301.66 100.476C301.095 99.9346 300.322 99.5889 299.446 99.3699L298.961 101.31ZM300.556 102.594V109.65H302.556V102.594H300.556ZM300.556 109.65C300.556 111.947 299.661 113.701 297.836 115.012L299.003 116.636C301.36 114.942 302.556 112.579 302.556 109.65H300.556ZM297.841 115.008C296.037 116.289 293.55 116.98 290.286 116.98V118.98C293.816 118.98 296.752 118.234 298.998 116.64L297.841 115.008ZM290.286 116.98C286.753 116.98 284.29 116.197 282.716 114.805C281.165 113.435 280.31 111.324 280.31 108.278H278.31C278.31 111.7 279.283 114.44 281.391 116.304C283.476 118.146 286.501 118.98 290.286 118.98V116.98ZM325.875 115.824L326.441 116.648L326.45 116.642L326.459 116.636L325.875 115.824ZM310.097 115.53L309.429 116.275L309.443 116.287L309.457 116.298L310.097 115.53ZM307.255 74.86H308.255V73.6858L307.096 73.8728L307.255 74.86ZM304.217 75.35L303.251 75.61L303.486 76.4809L304.376 76.3372L304.217 75.35ZM307.451 68.98V69.98H308.313L308.44 69.1273L307.451 68.98ZM308.823 59.768L307.839 59.5891L307.836 59.6049L307.834 59.6207L308.823 59.768ZM314.605 57.808H315.605V56.9609L314.769 56.8216L314.605 57.808ZM314.605 68.98H313.605V69.98H314.605V68.98ZM323.131 68.98V69.98H323.179L323.227 69.9754L323.131 68.98ZM328.227 68.49L329.209 68.3012L329.037 67.4075L328.131 67.4946L328.227 68.49ZM314.605 74.86V73.86H313.605V74.86H314.605ZM315.585 110.826L314.817 111.466L314.846 111.501L314.878 111.533L315.585 110.826ZM321.857 99.948H322.857V99.9161L322.855 99.8843L321.857 99.948ZM321.563 95.342L321.338 94.3676L320.511 94.5585L320.565 95.4057L321.563 95.342ZM326.659 95.44L326.343 96.3887L326.379 96.4008L326.416 96.4101L326.659 95.44ZM328.011 109.454C328.011 111.901 327.101 113.711 325.291 115.012L326.459 116.636C328.83 114.931 330.011 112.495 330.011 109.454H328.011ZM325.308 115C323.426 116.294 320.961 116.98 317.839 116.98V118.98C321.25 118.98 324.142 118.229 326.441 116.648L325.308 115ZM317.839 116.98C314.81 116.98 312.475 116.21 310.737 114.762L309.457 116.298C311.638 118.116 314.465 118.98 317.839 118.98V116.98ZM310.764 114.785C309.105 113.297 308.255 111.326 308.255 108.768H306.255C306.255 111.828 307.3 114.365 309.429 116.275L310.764 114.785ZM308.255 108.768V74.86H306.255V108.768H308.255ZM307.096 73.8728L304.058 74.3628L304.376 76.3372L307.414 75.8472L307.096 73.8728ZM305.183 75.09C304.739 73.4439 304.531 72.0655 304.531 70.94H302.531C302.531 72.2972 302.78 73.8587 303.251 75.61L305.183 75.09ZM304.531 70.94C304.531 70.3631 304.63 70.1033 304.688 70.015C304.708 69.9846 304.713 69.9874 304.704 69.9923C304.698 69.9954 304.722 69.98 304.805 69.98V67.98C304.078 67.98 303.427 68.2855 303.011 68.925C302.644 69.49 302.531 70.2103 302.531 70.94H304.531ZM304.805 69.98H307.451V67.98H304.805V69.98ZM308.44 69.1273L309.812 59.9153L307.834 59.6207L306.462 68.8327L308.44 69.1273ZM309.807 59.9469C309.888 59.5002 310.092 59.2156 310.436 59.0105C310.825 58.7797 311.463 58.612 312.449 58.612V56.612C311.279 56.612 310.235 56.8037 309.414 57.2915C308.551 57.8051 308.019 58.5985 307.839 59.5891L309.807 59.9469ZM312.449 58.612C313.037 58.612 313.7 58.6709 314.441 58.7944L314.769 56.8216C313.942 56.6837 313.168 56.612 312.449 56.612V58.612ZM313.605 57.808V68.98H315.605V57.808H313.605ZM314.605 69.98H323.131V67.98H314.605V69.98ZM323.227 69.9754L328.323 69.4854L328.131 67.4946L323.035 67.9846L323.227 69.9754ZM327.245 68.6788C327.563 70.334 327.717 71.7713 327.717 72.998H329.717C329.717 71.6114 329.544 70.0434 329.209 68.3012L327.245 68.6788ZM327.717 72.998C327.717 73.5358 327.619 73.7623 327.573 73.8298C327.569 73.8365 327.565 73.8407 327.563 73.8431C327.562 73.8443 327.561 73.8451 327.561 73.8456C327.56 73.8461 327.56 73.8463 327.56 73.8463C327.56 73.8463 327.56 73.8462 327.56 73.846C327.561 73.8457 327.561 73.8455 327.561 73.8452C327.562 73.8447 327.563 73.8445 327.562 73.8446C327.562 73.8448 327.555 73.8483 327.537 73.852C327.519 73.8558 327.488 73.86 327.443 73.86V75.86C328.148 75.86 328.799 75.5806 329.224 74.9592C329.602 74.406 329.717 73.7016 329.717 72.998H327.717ZM327.443 73.86H314.605V75.86H327.443V73.86ZM313.605 74.86V107.592H315.605V74.86H313.605ZM313.605 107.592C313.605 109.117 313.969 110.449 314.817 111.466L316.353 110.186C315.894 109.635 315.605 108.811 315.605 107.592H313.605ZM314.878 111.533C315.79 112.445 316.929 112.904 318.231 112.904V110.904C317.442 110.904 316.817 110.644 316.292 110.119L314.878 111.533ZM318.231 112.904C319.681 112.904 320.916 112.409 321.748 111.306C322.541 110.256 322.857 108.8 322.857 107.102H320.857C320.857 108.605 320.568 109.55 320.152 110.101C319.777 110.598 319.198 110.904 318.231 110.904V112.904ZM322.857 107.102V99.948H320.857V107.102H322.857ZM322.855 99.8843L322.561 95.2783L320.565 95.4057L320.859 100.012L322.855 99.8843ZM321.788 96.3164C322.565 96.137 323.339 96.048 324.111 96.048V94.048C323.184 94.048 322.259 94.155 321.338 94.3676L321.788 96.3164ZM324.111 96.048C324.929 96.048 325.671 96.1648 326.343 96.3887L326.975 94.4913C326.079 94.1926 325.122 94.048 324.111 94.048V96.048ZM326.416 96.4101C327.108 96.5831 327.511 96.809 327.731 97.0195C327.921 97.2017 328.011 97.4042 328.011 97.694H330.011C330.011 96.8731 329.709 96.1446 329.115 95.5755C328.55 95.0346 327.778 94.6889 326.901 94.4699L326.416 96.4101ZM328.011 97.694V109.454H330.011V97.694H328.011ZM341.967 99.066L341.412 98.2339L341.967 99.066ZM346.671 107.788L347.565 108.235L347.671 108.024V107.788H346.671ZM346.671 95.93H347.671V94.0615L346.116 95.0979L346.671 95.93ZM354.707 111.806L353.917 112.42L353.938 112.446L353.959 112.47L354.707 111.806ZM357.549 112.688L358.548 112.65L358.511 111.688H357.549V112.688ZM356.177 116.608L355.495 115.877L355.482 115.889L355.47 115.901L356.177 116.608ZM347.161 114.942L348.121 114.663L347.65 113.039L346.454 114.235L347.161 114.942ZM333.441 114.844L334.229 114.228L333.441 114.844ZM337.753 94.264L337.242 93.404L337.233 93.4098L337.753 94.264ZM346.671 88.972L347.181 89.832L347.671 89.5414V88.972H346.671ZM338.929 82.112H337.929V82.1439L337.931 82.1757L338.929 82.112ZM339.223 86.718L339.448 87.6924L340.275 87.5015L340.221 86.6543L339.223 86.718ZM334.127 86.62L334.443 85.6713L334.407 85.6592L334.369 85.6499L334.127 86.62ZM334.813 70.254L335.392 71.0695L335.396 71.066L334.813 70.254ZM341.412 98.2339C338.894 99.913 337.733 102.702 337.733 106.318H339.733C339.733 103.139 340.728 101.094 342.522 99.898L341.412 98.2339ZM337.733 106.318C337.733 108.053 337.991 109.521 338.638 110.586C339.334 111.731 340.425 112.316 341.771 112.316V110.316C341.091 110.316 340.663 110.068 340.347 109.547C339.981 108.946 339.733 107.915 339.733 106.318H337.733ZM341.771 112.316C344.344 112.316 346.272 110.822 347.565 108.235L345.776 107.341C344.718 109.458 343.379 110.316 341.771 110.316V112.316ZM347.671 107.788V95.93H345.671V107.788H347.671ZM346.116 95.0979L341.412 98.2339L342.522 99.898L347.226 96.7621L346.116 95.0979ZM343.045 69C346.578 69 349.04 69.7834 350.615 71.1748C352.165 72.5453 353.021 74.6563 353.021 77.702H355.021C355.021 74.2797 354.047 71.5397 351.939 69.6762C349.855 67.8336 346.829 67 343.045 67V69ZM353.021 77.702V108.866H355.021V77.702H353.021ZM353.021 108.866C353.021 110.297 353.249 111.561 353.917 112.42L355.496 111.192C355.25 110.875 355.021 110.179 355.021 108.866H353.021ZM353.959 112.47C354.773 113.386 356.092 113.688 357.549 113.688V111.688C356.262 111.688 355.686 111.402 355.454 111.142L353.959 112.47ZM356.55 112.726C356.607 114.219 356.208 115.211 355.495 115.877L356.859 117.339C358.106 116.175 358.621 114.555 358.548 112.65L356.55 112.726ZM355.47 115.901C354.802 116.568 353.756 116.98 352.159 116.98V118.98C354.089 118.98 355.722 118.477 356.884 117.315L355.47 115.901ZM352.159 116.98C350.899 116.98 349.996 116.746 349.371 116.366C348.77 116.001 348.352 115.457 348.121 114.663L346.2 115.221C346.558 116.452 347.267 117.428 348.332 118.075C349.373 118.708 350.675 118.98 352.159 118.98V116.98ZM346.454 114.235C344.607 116.082 342.473 116.98 340.007 116.98V118.98C343.029 118.98 345.664 117.853 347.868 115.649L346.454 114.235ZM340.007 116.98C337.558 116.98 335.665 116.067 334.229 114.228L332.653 115.46C334.483 117.802 336.967 118.98 340.007 118.98V116.98ZM334.229 114.228C332.772 112.364 331.991 109.794 331.991 106.416H329.991C329.991 110.094 330.843 113.143 332.653 115.46L334.229 114.228ZM331.991 106.416C331.991 101.401 334.068 97.6774 338.273 95.1182L337.233 93.4098C332.421 96.3386 329.991 100.716 329.991 106.416H331.991ZM338.263 95.124L347.181 89.832L346.16 88.112L337.242 93.404L338.263 95.124ZM347.671 88.972V78.388H345.671V88.972H347.671ZM347.671 78.388C347.671 76.8737 347.311 75.5523 346.415 74.6113C345.51 73.6613 344.224 73.272 342.751 73.272V75.272C343.891 75.272 344.565 75.5687 344.967 75.9907C345.377 76.4217 345.671 77.1583 345.671 78.388H347.671ZM342.751 73.272C341.268 73.272 339.992 73.7275 339.115 74.7849C338.267 75.8066 337.929 77.2292 337.929 78.878H339.929C339.929 77.4561 340.228 76.5758 340.654 76.0621C341.05 75.5841 341.685 75.272 342.751 75.272V73.272ZM337.929 78.878V82.112H339.929V78.878H337.929ZM337.931 82.1757L338.225 86.7817L340.221 86.6543L339.927 82.0483L337.931 82.1757ZM338.998 85.7436C338.226 85.9218 337.42 86.012 336.577 86.012V88.012C337.563 88.012 338.521 87.9062 339.448 87.6924L338.998 85.7436ZM336.577 86.012C335.832 86.012 335.122 85.8977 334.443 85.6713L333.811 87.5687C334.699 87.8649 335.623 88.012 336.577 88.012V86.012ZM334.369 85.6499C333.678 85.4769 333.274 85.251 333.055 85.0405C332.865 84.8583 332.775 84.6558 332.775 84.366H330.775C330.775 85.1869 331.077 85.9154 331.671 86.4845C332.235 87.0254 333.008 87.3711 333.884 87.5901L334.369 85.6499ZM332.775 84.366V76.33H330.775V84.366H332.775ZM332.775 76.33C332.775 74.0207 333.646 72.308 335.392 71.0695L334.234 69.4385C331.929 71.0746 330.775 73.4126 330.775 76.33H332.775ZM335.396 71.066C337.27 69.7193 339.791 69 343.045 69V67C339.504 67 336.537 67.7833 334.229 69.442L335.396 71.066ZM359.205 50.262L358.734 49.3796L358.054 49.7424L358.232 50.4925L359.205 50.262ZM368.123 111.806L367.333 112.42L367.354 112.446L367.375 112.47L368.123 111.806ZM370.965 112.688L371.964 112.65L371.927 111.688H370.965V112.688ZM369.593 116.608L368.911 115.877L368.898 115.889L368.886 115.901L369.593 116.608ZM361.361 116.314L360.566 116.921L360.577 116.936L360.589 116.95L361.361 116.314ZM361.087 56.24C361.087 54.6244 360.773 52.5452 360.178 50.0315L358.232 50.4925C358.812 52.9442 359.087 54.8502 359.087 56.24H361.087ZM359.675 51.1443C361.491 50.1763 363.42 49.694 365.477 49.694V47.694C363.091 47.694 360.839 48.2571 358.734 49.3796L359.675 51.1443ZM365.477 49.694C366.034 49.694 366.27 49.8035 366.347 49.8615C366.376 49.8833 366.389 49.9017 366.401 49.927C366.414 49.9582 366.437 50.029 366.437 50.164H368.437C368.437 49.43 368.177 48.7341 367.547 48.2615C366.971 47.8295 366.226 47.694 365.477 47.694V49.694ZM366.437 50.164V108.866H368.437V50.164H366.437ZM366.437 108.866C366.437 110.297 366.665 111.561 367.333 112.42L368.912 111.192C368.666 110.875 368.437 110.179 368.437 108.866H366.437ZM367.375 112.47C368.189 113.386 369.508 113.688 370.965 113.688V111.688C369.678 111.688 369.102 111.402 368.87 111.142L367.375 112.47ZM369.966 112.726C370.023 114.219 369.624 115.211 368.911 115.877L370.275 117.339C371.522 116.175 372.037 114.555 371.964 112.65L369.966 112.726ZM368.886 115.901C368.225 116.562 367.152 116.98 365.477 116.98V118.98C367.46 118.98 369.132 118.483 370.3 117.315L368.886 115.901ZM365.477 116.98C363.858 116.98 362.808 116.498 362.133 115.678L360.589 116.95C361.743 118.351 363.437 118.98 365.477 118.98V116.98ZM362.155 115.707C361.511 114.864 361.087 113.313 361.087 110.826H359.087C359.087 113.435 359.512 115.543 360.566 116.921L362.155 115.707ZM361.087 110.826V56.24H359.087V110.826H361.087ZM385.297 97.694L385.821 96.8423L385.813 96.8374L385.297 97.694ZM376.673 92.5L376.149 93.3517L376.157 93.3566L376.673 92.5ZM375.595 70.744L376.289 71.4638L376.29 71.4634L375.595 70.744ZM392.157 70.254L392.779 69.4705L392.157 70.254ZM392.647 84.856L392.405 83.8859L392.368 83.8952L392.331 83.9073L392.647 84.856ZM387.551 84.954L386.561 84.8189L386.437 85.7232L387.326 85.9284L387.551 84.954ZM382.357 87.502L382.859 86.6368L382.848 86.6303L382.836 86.6241L382.357 87.502ZM390.981 92.5L390.48 93.3652L390.487 93.3693L390.494 93.3732L390.981 92.5ZM392.353 115.334L393.047 116.054L393.048 116.053L392.353 115.334ZM375.791 115.824L375.213 116.64L375.791 115.824ZM375.105 100.928L375.348 101.898L375.385 101.889L375.422 101.877L375.105 100.928ZM380.201 100.83L381.192 100.965L381.315 100.061L380.426 99.8556L380.201 100.83ZM378.907 107.298C378.907 108.895 379.26 110.28 380.14 111.27C381.04 112.283 382.334 112.708 383.827 112.708V110.708C382.707 110.708 382.041 110.398 381.635 109.941C381.208 109.461 380.907 108.641 380.907 107.298H378.907ZM383.827 112.708C385.372 112.708 386.697 112.238 387.608 111.149C388.49 110.095 388.845 108.622 388.845 106.906H386.845C386.845 108.392 386.531 109.32 386.074 109.866C385.646 110.378 384.961 110.708 383.827 110.708V112.708ZM388.845 106.906V102.888H386.845V106.906H388.845ZM388.845 102.888C388.845 100.209 387.882 98.1104 385.821 96.8423L384.773 98.5457C386.11 99.3682 386.845 100.732 386.845 102.888H388.845ZM385.813 96.8374L377.189 91.6434L376.157 93.3566L384.781 98.5506L385.813 96.8374ZM377.197 91.6483C375.02 90.3084 373.851 88.0367 373.851 84.562H371.851C371.851 88.5353 373.231 91.5556 376.149 93.3517L377.197 91.6483ZM373.851 84.562V77.702H371.851V84.562H373.851ZM373.851 77.702C373.851 75.0598 374.682 73.0139 376.289 71.4638L374.901 70.0242C372.85 72.0021 371.851 74.5949 371.851 77.702H373.851ZM376.29 71.4634C377.939 69.8714 380.397 69 383.827 69V67C380.071 67 377.041 67.958 374.901 70.0246L376.29 71.4634ZM383.827 69C387.371 69 389.889 69.7309 391.536 71.0375L392.779 69.4705C390.637 67.7717 387.601 67 383.827 67V69ZM391.536 71.0375C393.17 72.3336 393.999 74.0916 393.999 76.428H395.999C395.999 73.5377 394.934 71.1798 392.779 69.4705L391.536 71.0375ZM393.999 76.428V82.602H395.999V76.428H393.999ZM393.999 82.602C393.999 82.8918 393.91 83.0943 393.719 83.2765C393.5 83.487 393.096 83.7129 392.405 83.8859L392.89 85.8261C393.766 85.6071 394.539 85.2614 395.103 84.7205C395.697 84.1514 395.999 83.4229 395.999 82.602H393.999ZM392.331 83.9073C391.659 84.1312 390.918 84.248 390.099 84.248V86.248C391.11 86.248 392.067 86.1034 392.964 85.8047L392.331 83.9073ZM390.099 84.248C389.328 84.248 388.554 84.159 387.776 83.9796L387.326 85.9284C388.248 86.141 389.172 86.248 390.099 86.248V84.248ZM388.542 85.0891C388.745 83.6018 388.845 82.021 388.845 80.348H386.845C386.845 81.9417 386.75 83.4315 386.561 84.8189L388.542 85.0891ZM388.845 80.348V78.878H386.845V80.348H388.845ZM388.845 78.878C388.845 77.234 388.517 75.8155 387.692 74.7948C386.834 73.7334 385.58 73.272 384.121 73.272V75.272C385.146 75.272 385.754 75.5783 386.137 76.0522C386.553 76.5668 386.845 77.4514 386.845 78.878H388.845ZM384.121 73.272C382.648 73.272 381.362 73.6613 380.457 74.6113C379.561 75.5523 379.201 76.8737 379.201 78.388H381.201C381.201 77.1583 381.495 76.4217 381.905 75.9907C382.307 75.5687 382.982 75.272 384.121 75.272V73.272ZM379.201 78.388V82.896H381.201V78.388H379.201ZM379.201 82.896C379.201 85.3845 379.998 87.3541 381.878 88.3799L382.836 86.6241C381.842 86.0819 381.201 84.9808 381.201 82.896H379.201ZM381.856 88.3672L390.48 93.3652L391.483 91.6348L382.859 86.6368L381.856 88.3672ZM390.494 93.3732C392.925 94.7299 394.195 97.0321 394.195 100.536H396.195C396.195 96.4612 394.657 93.4061 391.469 91.6268L390.494 93.3732ZM394.195 100.536V107.886H396.195V100.536H394.195ZM394.195 107.886C394.195 110.807 393.321 113.009 391.659 114.615L393.048 116.053C395.175 114 396.195 111.237 396.195 107.886H394.195ZM391.659 114.614C390.082 116.135 387.662 116.98 384.219 116.98V118.98C387.964 118.98 390.966 118.061 393.047 116.054L391.659 114.614ZM384.219 116.98C380.745 116.98 378.166 116.283 376.37 115.008L375.213 116.64C377.467 118.24 380.507 118.98 384.219 118.98V116.98ZM376.37 115.008C374.632 113.775 373.753 112.034 373.753 109.65H371.753C371.753 112.623 372.9 114.998 375.213 116.64L376.37 115.008ZM373.753 109.65V103.182H371.753V109.65H373.753ZM373.753 103.182C373.753 102.892 373.843 102.69 374.033 102.507C374.253 102.297 374.656 102.071 375.348 101.898L374.863 99.9579C373.986 100.177 373.214 100.523 372.649 101.064C372.056 101.633 371.753 102.361 371.753 103.182H373.753ZM375.422 101.877C376.101 101.65 376.81 101.536 377.555 101.536V99.536C376.602 99.536 375.678 99.6831 374.789 99.9793L375.422 101.877ZM377.555 101.536C378.398 101.536 379.204 101.626 379.976 101.804L380.426 99.8556C379.5 99.6418 378.542 99.536 377.555 99.536V101.536ZM379.211 100.695C379.008 102.182 378.907 103.763 378.907 105.436H380.907C380.907 103.842 381.003 102.353 381.192 100.965L379.211 100.695ZM378.907 105.436V107.298H380.907V105.436H378.907Z" fill="white"/>
<defs>
<linearGradient id="paint0_linear_886_13602" x1="101.018" y1="78.8599" x2="126.166" y2="19.6977" gradientUnits="userSpaceOnUse">
<stop stop-color="#A76FEC"/>
<stop offset="1" stop-color="#914BE7"/>
</linearGradient>
<linearGradient id="paint1_linear_886_13602" x1="120.002" y1="26.1127" x2="100.582" y2="81.2885" gradientUnits="userSpaceOnUse">
<stop stop-color="#7C40C5"/>
<stop offset="1" stop-color="#A76FEC"/>
</linearGradient>
<linearGradient id="paint2_linear_886_13602" x1="106.223" y1="112.987" x2="120.362" y2="175.698" gradientUnits="userSpaceOnUse">
<stop stop-color="#A76FEC"/>
<stop offset="1" stop-color="#914BE7"/>
</linearGradient>
<linearGradient id="paint3_linear_886_13602" x1="121.619" y1="166.891" x2="105.158" y2="110.761" gradientUnits="userSpaceOnUse">
<stop stop-color="#7C40C5"/>
<stop offset="1" stop-color="#A76FEC"/>
</linearGradient>
<linearGradient id="paint4_linear_886_13602" x1="80.4667" y1="86.8105" x2="30.8112" y2="45.9826" gradientUnits="userSpaceOnUse">
<stop stop-color="#A76FEC"/>
<stop offset="1" stop-color="#914BE7"/>
</linearGradient>
<linearGradient id="paint5_linear_886_13602" x1="35.225" y1="53.7068" x2="82.6736" y2="87.9139" gradientUnits="userSpaceOnUse">
<stop stop-color="#7C40C5"/>
<stop offset="1" stop-color="#A76FEC"/>
</linearGradient>
<linearGradient id="paint6_linear_886_13602" x1="81.1014" y1="108.454" x2="27.9796" y2="144.657" gradientUnits="userSpaceOnUse">
<stop stop-color="#A76FEC"/>
<stop offset="1" stop-color="#914BE7"/>
</linearGradient>
<linearGradient id="paint7_linear_886_13602" x1="36.6321" y1="142.588" x2="82.7798" y2="106.645" gradientUnits="userSpaceOnUse">
<stop stop-color="#7C40C5"/>
<stop offset="1" stop-color="#A76FEC"/>
</linearGradient>
</defs>
</svg>
